<?xml version="1.0" standalone="no"?>
  <!DOCTYPE svg PUBLIC "-//W3C//DTD SVG 1.1//EN" "http://www.w3.org/Graphics/SVG/1.1/DTD/svg11.dtd" >
  <svg>
  <metadata>
  Created by font-carrier
  </metadata>
  <defs>
  <font id="MuseoSansCyrl-500" horiz-adv-x="1130" vert-adv-y="1130" >
    <font-face
      
      font-family="Museo Sans Cyrl 500"
      
      font-weight="400"
      
      font-stretch="normal"
      
      units-per-em="1000"
      
      ascent="940"
      
      descent="-260"
      
    />
      <missing-glyph />

      

      
      <glyph glyph-name="uni21" unicode="&#x21;" d="M93 194L87 706L187 706L180 194L93 194M87 0L87 99L187 99L187 0L87 0Z"  horiz-adv-x="275" vert-adv-y="1000"  />

      
      <glyph glyph-name="uni22" unicode="&#x22;" d="M215 530L215 718L291 718L291 530L215 530M74 530L74 718L151 718L151 530L74 530Z"  horiz-adv-x="365" vert-adv-y="1000"  />

      
      <glyph glyph-name="uni23" unicode="&#x23;" d="M141 0L174 191L43 191L56 264L187 264L217 433L87 433L99 506L229 506L264 706L345 706L310 506L465 506L500 706L581 706L546 506L677 506L664 433L534 433L504 264L633 264L621 191L492 191L458 0L377 0L410 191L255 191L222 0L141 0M268 264L423 264L453 433L297 433L268 264Z"  horiz-adv-x="721" vert-adv-y="1000"  />

      
      <glyph glyph-name="uni24" unicode="&#x24;" d="M60 81L115 156Q148 123 197.50 101.50Q247 80 295 80Q347 80 382 108Q417 136 417 184Q417 224 381.50 253.50Q346 283 295 304.50Q244 326 193 351Q142 376 106.50 419Q71 462 71 521Q71 594 122.50 648.50Q174 703 257 715L257 809L327 809L327 716Q428 710 499 646L454 565Q424 592 382 609.50Q340 627 299 627Q244 627 207.50 596.50Q171 566 171 523Q171 490 196.50 464.50Q222 439 260.50 423.50Q299 408 344 387Q389 366 427.50 343.50Q466 321 491.50 280.50Q517 240 517 187Q517 110 466 55Q415 0 327-10L327-102L257-102L257-10Q134 2 60 81Z"  horiz-adv-x="577" vert-adv-y="1000"  />

      
      <glyph glyph-name="uni25" unicode="&#x25;" d="M308 465.50Q308 465.50 285.50 443.75Q263 422 200 422Q137 422 93 465Q49 508 49 570Q49 631 93 674.50Q137 718 200 718Q263 718 308 674.50Q353 631 353 570Q353 509 308 465.50M64 0L605 706L699 706L159 0L64 0M200 496Q232 496 253.50 517.50Q275 539 275 570Q275 601 253 623Q231 645 200 645Q169 645 148 623Q127 601 127 570Q127 539 148 517.50Q169 496 200 496M412 135Q412 197 456 240.50Q500 284 563 284Q626 284 670.50 240.50Q715 197 715 135Q715 74 670.50 31Q626-12 563-12Q500-12 456 31Q412 74 412 135M511 189Q511 189 500.50 178Q490 167 490 136Q490 105 511 83.50Q532 62 563 62Q594 62 615.50 83.50Q637 105 637 136Q637 167 615.50 189Q594 211 563 211Q532 211 511 189Z"  horiz-adv-x="763" vert-adv-y="1000"  />

      
      <glyph glyph-name="uni26" unicode="&#x26;" d="M56 197Q56 258 89.50 309Q123 360 180 378L180 380Q137 399 111.50 439Q86 479 86 536Q86 622 146.50 670Q207 718 304 718Q344 718 390 707L365 628Q343 634 312 634Q258 634 222.50 605Q187 576 187 526Q187 482 215.50 448.50Q244 415 316 415L447 415L447 511L545 511L545 415L639 415L639 329L545 329L545 235Q545 118 480 53Q415-12 300-12Q192-12 124 47.50Q56 107 56 197M157 203Q157 150 196.50 114.50Q236 79 300 79Q370 79 408.50 119Q447 159 447 240L447 329L313 329Q238 329 197.50 296Q157 263 157 203Z"  horiz-adv-x="674" vert-adv-y="1000"  />

      
      <glyph glyph-name="uni27" unicode="&#x27;" d="M74 530L74 718L151 718L151 530L74 530Z"  horiz-adv-x="226" vert-adv-y="1000"  />

      
      <glyph glyph-name="uni28" unicode="&#x28;" d="M169-95Q53 98 53 340Q53 550 169 735L254 735Q141 546 141 339Q141 110 254-95L169-95Z"  horiz-adv-x="293" vert-adv-y="1000"  />

      
      <glyph glyph-name="uni29" unicode="&#x29;" d="M39-95Q152 110 152 339Q152 546 39 735L124 735Q240 550 240 340Q240 98 124-95L39-95Z"  horiz-adv-x="293" vert-adv-y="1000"  />

      
      <glyph glyph-name="uni2a" unicode="&#x2a;" d="M170 329L97 381L187 491L187 493L50 530L77 615L210 564L202 706L293 706L285 564L419 614L446 531L309 493L309 491L398 381L326 329L248 447L246 447L170 329Z"  horiz-adv-x="495" vert-adv-y="1000"  />

      
      <glyph glyph-name="uni2b" unicode="&#x2b;" d="M24 246L24 324L248 324L248 570L330 570L330 324L553 324L553 246L330 246L330 0L248 0L248 246L24 246Z"  horiz-adv-x="577" vert-adv-y="1000"  />

      
      <glyph glyph-name="uni2c" unicode="&#x2c;" d="M35-101L97 105L199 105L112-101L35-101Z"  horiz-adv-x="272" vert-adv-y="1000"  />

      
      <glyph glyph-name="uni2d" unicode="&#x2d;" d="M70 242L70 328L362 328L362 242L70 242Z"  horiz-adv-x="432" vert-adv-y="1000"  />

      
      <glyph glyph-name="uni2e" unicode="&#x2e;" d="M70 0L70 105L174 105L174 0L70 0Z"  horiz-adv-x="244" vert-adv-y="1000"  />

      
      <glyph glyph-name="uni2f" unicode="&#x2f;" d="M38-42L292 744L378 744L124-42L38-42Z"  horiz-adv-x="416" vert-adv-y="1000"  />

      
      <glyph glyph-name="uni30" unicode="&#x30;" d="M311-12Q243-12 193 16Q143 44 115 95Q87 146 74 210Q61 274 61 354Q61 434 74 497.50Q87 561 115 611.50Q143 662 193 690Q243 718 311 718Q561 718 561 354Q561-12 311-12M163 354Q163 79 311 79Q459 79 459 354Q459 627 311 627Q163 627 163 354Z"  horiz-adv-x="622" vert-adv-y="1000"  />

      
      <glyph glyph-name="uni31" unicode="&#x31;" d="M57 0L57 86L213 86L213 542L214 585L212 585Q204 570 178 544L112 480L52 542L221 706L309 706L309 86L464 86L464 0L57 0Z"  horiz-adv-x="494" vert-adv-y="1000"  />

      
      <glyph glyph-name="uni32" unicode="&#x32;" d="M60 0Q55 32 55 54Q55 105 74 149Q93 193 123.50 225Q154 257 191 285.50Q228 314 265.50 339Q303 364 333.50 389Q364 414 383 444.50Q402 475 402 508Q402 560 366 592.50Q330 625 274 625Q231 625 192.50 600Q154 575 131 535L58 584Q90 643 149 680.50Q208 718 282 718Q380 718 442 662Q504 606 504 515Q504 461 479 414Q454 367 416.50 336.50Q379 306 335 274Q291 242 253 217Q215 192 189.50 157.50Q164 123 163 86L515 86L515 0L60 0Z"  horiz-adv-x="573" vert-adv-y="1000"  />

      
      <glyph glyph-name="uni33" unicode="&#x33;" d="M44 84L98 159Q129 126 175 104Q221 82 269 82Q329 82 371 118.50Q413 155 413 211Q413 273 365.50 307Q318 341 248 341L200 341L177 394L331 575Q341 587 352 598.50Q363 610 369 616L375 621L375 623Q354 620 315 620L76 620L76 706L498 706L498 643L306 421Q357 416 401.50 395Q446 374 479.50 326.50Q513 279 513 214Q513 121 446 54.50Q379-12 273-12Q210-12 149 13Q88 38 44 84Z"  horiz-adv-x="567" vert-adv-y="1000"  />

      
      <glyph glyph-name="uni34" unicode="&#x34;" d="M34 189L34 251L361 706L473 706L473 272L569 272L569 189L473 189L473 0L376 0L376 189L34 189M143 272L376 272L376 530L380 601L378 601Q362 567 343 542L143 274L143 272Z"  horiz-adv-x="610" vert-adv-y="1000"  />

      
      <glyph glyph-name="uni35" unicode="&#x35;" d="M49 86L105 158Q167 82 260 82Q324 82 369 122Q414 162 414 225Q414 288 368.50 329Q323 370 254 370Q188 370 135 335L77 356L112 706L469 706L469 620L198 620L182 471L176 435L178 435Q218 456 270 456Q380 456 448 389.50Q516 323 516 225Q516 124 444.50 56Q373-12 266-12Q203-12 145.50 13.50Q88 39 49 86Z"  horiz-adv-x="563" vert-adv-y="1000"  />

      
      <glyph glyph-name="uni36" unicode="&#x36;" d="M57 320Q57 376 69 431.50Q81 487 106.50 539Q132 591 168 630.50Q204 670 257.50 694Q311 718 374 718Q451 718 512 689L480 604Q436 627 378 627Q288 627 234 557.50Q180 488 167 390L169 390Q191 420 234.50 438Q278 456 325 456Q424 456 486 390Q548 324 548 223Q548 121 484 54.50Q420-12 321-12Q207-12 132 80Q57 172 57 320M324 79Q380 79 415 120Q450 161 450 223Q450 290 411 331.50Q372 373 305 373Q247 373 204 344Q161 315 161 269Q161 204 207.50 141.50Q254 79 324 79Z"  horiz-adv-x="597" vert-adv-y="1000"  />

      
      <glyph glyph-name="uni37" unicode="&#x37;" d="M92 0L367 555Q376 573 386 589.50Q396 606 402 613L407 620L407 622Q393 620 357 620L41 620L41 706L513 706L513 638L195 0L92 0Z"  horiz-adv-x="537" vert-adv-y="1000"  />

      
      <glyph glyph-name="uni38" unicode="&#x38;" d="M55 201Q55 238 68 272.50Q81 307 102 331Q123 355 138 368.50Q153 382 168 392Q89 447 89 531Q89 609 146 663.50Q203 718 309 718Q408 718 469.50 666.50Q531 615 531 530Q531 490 513 447.50Q495 405 478.50 383Q462 361 446 345Q542 287 542 195Q542 110 475 49Q408-12 300-12Q195-12 125 48.50Q55 109 55 201M370 383Q434 451 434 522Q434 572 399 600.50Q364 629 307 629Q251 629 219 601Q187 573 187 531Q187 516 191.50 503Q196 490 202.50 480Q209 470 222 459.50Q235 449 245 442Q255 435 273.50 426Q292 417 303.50 411.50Q315 406 337 397Q359 388 370 383M156 209Q156 152 199 114.50Q242 77 299 77Q357 77 399 110.50Q441 144 441 197Q441 220 430.50 238.50Q420 257 396 273Q372 289 353 299Q334 309 296.50 325Q259 341 242 349Q156 289 156 209Z"  horiz-adv-x="603" vert-adv-y="1000"  />

      
      <glyph glyph-name="uni39" unicode="&#x39;" d="M84 17L116 103Q164 79 217 79Q308 79 362 148.50Q416 218 429 316L427 316Q406 286 362 268Q318 250 271 250Q172 250 110 316Q48 382 48 482Q48 586 112 652Q176 718 275 718Q390 718 464.50 626Q539 534 539 385Q539 315 519.50 246.50Q500 178 462.50 119Q425 60 362.50 24Q300-12 221-12Q143-12 84 17M291 333Q350 333 393 363.50Q436 394 436 432Q436 504 388.50 565.50Q341 627 276 627Q217 627 182 586.50Q147 546 147 482Q147 416 186 374.50Q225 333 291 333Z"  horiz-adv-x="597" vert-adv-y="1000"  />

      
      <glyph glyph-name="uni3a" unicode="&#x3a;" d="M70 403L70 506L172 506L172 403L70 403M70 0L70 103L172 103L172 0L70 0Z"  horiz-adv-x="242" vert-adv-y="1000"  />

      
      <glyph glyph-name="uni3b" unicode="&#x3b;" d="M108 403L108 506L208 506L208 403L108 403M53-101L106 105L206 105L130-101L53-101Z"  horiz-adv-x="288" vert-adv-y="1000"  />

      
      <glyph glyph-name="uni3c" unicode="&#x3c;" d="M42 252L42 318L508 526L508 437L151 286L151 284L508 133L508 44L42 252Z"  horiz-adv-x="577" vert-adv-y="1000"  />

      
      <glyph glyph-name="uni3d" unicode="&#x3d;" d="M50 340L50 418L527 418L527 340L50 340M50 151L50 229L527 229L527 151L50 151Z"  horiz-adv-x="577" vert-adv-y="1000"  />

      
      <glyph glyph-name="uni3e" unicode="&#x3e;" d="M68 44L68 133L425 284L425 286L68 437L68 526L534 318L534 252L68 44Z"  horiz-adv-x="577" vert-adv-y="1000"  />

      
      <glyph glyph-name="uni3f" unicode="&#x3f;" d="M151 194L151 241Q151 283 168.50 317Q186 351 211 374.50Q236 398 260.50 419.50Q285 441 302.50 469Q320 497 320 530Q320 572 287.50 600.50Q255 629 206 629Q145 629 93 587L39 656Q111 720 213 720Q300 720 361 669Q422 618 422 537Q422 491 404 454.50Q386 418 360 393.50Q334 369 307.50 346.50Q281 324 263 296Q245 268 245 235L245 194L151 194M148 0L148 99L248 99L248 0L148 0Z"  horiz-adv-x="466" vert-adv-y="1000"  />

      
      <glyph glyph-name="uni40" unicode="&#x40;" d="M164-19.50Q164-19.50 110 33.25Q56 86 56 241Q56 396 162 503.50Q268 611 421 611Q556 611 618.50 553.50Q681 496 681 408L681 125L753 125L753 52L480 52Q389 52 331 107.50Q273 163 273 240Q273 318 330.50 373Q388 428 480 428L588 428Q587 472 544 501.50Q501 531 426 531Q311 531 232 445Q153 359 153 241Q153 120 232.50 37Q312-46 437-46L437-125Q272-125 164-19.50M371 242Q371 193 404 159Q437 125 487 125L588 125L588 361L489 361Q438 361 404.50 326.50Q371 292 371 242Z"  horiz-adv-x="796" vert-adv-y="1000"  />

      
      <glyph glyph-name="uni41" unicode="&#x41;" d="M15 0L268 706L373 706L626 0L524 0L453 203L187 203L116 0L15 0M213 285L427 285L349 508L321 609L319 609Q304 545 292 508L213 285Z"  horiz-adv-x="641" vert-adv-y="1000"  />

      
      <glyph glyph-name="uni42" unicode="&#x42;" d="M93 0L93 706L340 706Q432 706 488.50 658Q545 610 545 526Q545 475 521.50 435Q498 395 457 374L457 372Q512 356 543 309Q574 262 574 201Q574 105 509 52.50Q444 0 346 0L93 0M192 409L340 409Q387 409 415.50 439Q444 469 444 516Q444 563 416 591.50Q388 620 339 620L192 620L192 409M192 86L351 86Q407 86 439.50 119Q472 152 472 207Q472 261 439 294Q406 327 351 327L192 327L192 86Z"  horiz-adv-x="624" vert-adv-y="1000"  />

      
      <glyph glyph-name="uni43" unicode="&#x43;" d="M50 357Q50 512 151.50 615Q253 718 409 718Q570 718 667 625L617 551Q578 586 522.50 607Q467 628 413 628Q293 628 222.50 551Q152 474 152 358Q152 241 224 160Q296 79 415 79Q474 79 531.50 103.50Q589 128 632 171L685 100Q573-12 412-12Q251-12 150.50 93.50Q50 199 50 357Z"  horiz-adv-x="717" vert-adv-y="1000"  />

      
      <glyph glyph-name="uni44" unicode="&#x44;" d="M93 0L93 706L328 706Q491 706 588 612.50Q685 519 685 354Q685 188 588 94Q491 0 328 0L93 0M192 86L321 86Q442 86 512.50 155.50Q583 225 583 354Q583 481 512 550.50Q441 620 321 620L192 620L192 86Z"  horiz-adv-x="737" vert-adv-y="1000"  />

      
      <glyph glyph-name="uni45" unicode="&#x45;" d="M93 0L93 706L504 706L504 620L192 620L192 399L445 399L445 313L192 313L192 86L521 86L521 0L93 0Z"  horiz-adv-x="564" vert-adv-y="1000"  />

      
      <glyph glyph-name="uni46" unicode="&#x46;" d="M93 0L93 706L482 706L482 620L192 620L192 387L439 387L439 301L192 301L192 0L93 0Z"  horiz-adv-x="514" vert-adv-y="1000"  />

      
      <glyph glyph-name="uni47" unicode="&#x47;" d="M50 354Q50 508 153 613Q256 718 410 718Q565 718 667 632L617 559Q581 589 525.50 608.50Q470 628 417 628Q297 628 224.50 550Q152 472 152 356Q152 235 226 157Q300 79 411 79Q526 79 611 167L611 269L497 269L497 355L702 355L702 0L615 0L615 44L616 74L614 74Q577 35 519 11.50Q461-12 397-12Q252-12 151 91.50Q50 195 50 354Z"  horiz-adv-x="762" vert-adv-y="1000"  />

      
      <glyph glyph-name="uni48" unicode="&#x48;" d="M93 0L93 706L192 706L192 396L559 396L559 706L657 706L657 0L559 0L559 310L192 310L192 0L93 0Z"  horiz-adv-x="750" vert-adv-y="1000"  />

      
      <glyph glyph-name="uni49" unicode="&#x49;" d="M93 0L93 706L192 706L192 0L93 0Z"  horiz-adv-x="286" vert-adv-y="1000"  />

      
      <glyph glyph-name="uni4a" unicode="&#x4a;" d="M28 203L28 238L126 238L126 208Q126 152 153.50 115.50Q181 79 237 79Q285 79 316.50 109.50Q348 140 348 204L348 620L170 620L170 706L446 706L446 203Q446 96 384.50 42Q323-12 237-12Q151-12 89.50 42.50Q28 97 28 203Z"  horiz-adv-x="533" vert-adv-y="1000"  />

      
      <glyph glyph-name="uni4b" unicode="&#x4b;" d="M93 0L93 706L192 706L192 409L297 409L476 706L585 706L379 371L379 369L598 0L485 0L297 323L192 323L192 0L93 0Z"  horiz-adv-x="614" vert-adv-y="1000"  />

      
      <glyph glyph-name="uni4c" unicode="&#x4c;" d="M93 0L93 706L192 706L192 86L509 86L509 0L93 0Z"  horiz-adv-x="526" vert-adv-y="1000"  />

      
      <glyph glyph-name="uni4d" unicode="&#x4d;" d="M66 0L124 706L227 706L390 324L424 229L426 229Q445 285 461 324L624 706L727 706L784 0L686 0L652 445L650 549L648 549Q626 484 610 445L469 127L381 127L241 445L203 551L201 551Q203 488 199 445L165 0L66 0Z"  horiz-adv-x="851" vert-adv-y="1000"  />

      
      <glyph glyph-name="uni4e" unicode="&#x4e;" d="M93 0L93 706L191 706L506 248L564 145L566 145Q560 208 560 248L560 706L658 706L658 0L561 0L246 458L188 561L186 561Q192 498 192 458L192 0L93 0Z"  horiz-adv-x="752" vert-adv-y="1000"  />

      
      <glyph glyph-name="uni4f" unicode="&#x4f;" d="M49 358Q49 511 152 614.50Q255 718 412 718Q568 718 671 614.50Q774 511 774 358Q774 201 671 94.50Q568-12 412-12Q256-12 152.50 94.50Q49 201 49 358M151 358Q151 239 225 159Q299 79 412 79Q524 79 598 159Q672 239 672 358Q672 473 598 550.50Q524 628 412 628Q299 628 225 550.50Q151 473 151 358Z"  horiz-adv-x="823" vert-adv-y="1000"  />

      
      <glyph glyph-name="uni50" unicode="&#x50;" d="M93 0L93 706L352 706Q450 706 511.50 645.50Q573 585 573 485Q573 385 511 323Q449 261 352 261L192 261L192 0L93 0M192 347L336 347Q399 347 436 384Q473 421 473 485Q473 548 436.50 584Q400 620 337 620L192 620L192 347Z"  horiz-adv-x="606" vert-adv-y="1000"  />

      
      <glyph glyph-name="uni51" unicode="&#x51;" d="M50 357Q50 511 153 614.50Q256 718 411 718Q569 718 671.50 614.50Q774 511 774 357Q774 224 692 124L775 44L717-18L635 65Q541-12 411-12Q255-12 152.50 95Q50 202 50 357M152 357Q152 240 226.50 159.50Q301 79 411 79Q502 79 565 131L482 212L539 274L620 191Q672 263 672 357Q672 473 597.50 550.50Q523 628 411 628Q301 628 226.50 550.50Q152 473 152 357Z"  horiz-adv-x="824" vert-adv-y="1000"  />

      
      <glyph glyph-name="uni52" unicode="&#x52;" d="M93 0L93 706L317 706Q406 706 448 687Q500 664 530 616Q560 568 560 502Q560 434 525.50 380.50Q491 327 434 308L434 306Q442 296 454 274L604 0L492 0L343 281L192 281L192 0L93 0M192 367L334 367Q392 367 426 402.50Q460 438 460 497Q460 580 394 608Q367 620 309 620L192 620L192 367Z"  horiz-adv-x="628" vert-adv-y="1000"  />

      
      <glyph glyph-name="uni53" unicode="&#x53;" d="M41 81L97 156Q131 123 179 101.50Q227 80 275 80Q331 80 365 107.50Q399 135 399 181Q399 224 364 254.50Q329 285 278.50 306Q228 327 178 351Q128 375 93 418Q58 461 58 522Q58 610 123.50 664Q189 718 289 718Q410 718 486 646L441 565Q411 593 368.50 610Q326 627 285 627Q230 627 194 599.50Q158 572 158 527Q158 492 183 465Q208 438 246 422.50Q284 407 328 386.50Q372 366 410 344Q448 322 473 282Q498 242 498 189Q498 103 438 45.50Q378-12 273-12Q136-12 41 81Z"  horiz-adv-x="545" vert-adv-y="1000"  />

      
      <glyph glyph-name="uni54" unicode="&#x54;" d="M258 0L258 620L15 620L15 706L599 706L599 620L356 620L356 0L258 0Z"  horiz-adv-x="615" vert-adv-y="1000"  />

      
      <glyph glyph-name="uni55" unicode="&#x55;" d="M85 250L85 706L184 706L184 251Q184 170 232.50 124.50Q281 79 363 79Q445 79 493 124.50Q541 170 541 252L541 706L640 706L640 250Q640 132 564 60Q488-12 364-12Q239-12 162 60Q85 132 85 250Z"  horiz-adv-x="726" vert-adv-y="1000"  />

      
      <glyph glyph-name="uni56" unicode="&#x56;" d="M270 0L12 706L118 706L294 207L321 110L323 110Q337 169 350 207L527 706L632 706L374 0L270 0Z"  horiz-adv-x="644" vert-adv-y="1000"  />

      
      <glyph glyph-name="uni57" unicode="&#x57;" d="M209 0L29 706L133 706L256 188L270 113L272 113Q278 149 288 188L427 706L514 706L652 188L668 113L670 113Q674 150 683 188L814 706L916 706L730 0L617 0L493 458L472 557L468 557Q459 504 446 458L323 0L209 0Z"  horiz-adv-x="941" vert-adv-y="1000"  />

      
      <glyph glyph-name="uni58" unicode="&#x58;" d="M16 0L238 364L30 706L143 706L254 515L299 431L301 431Q321 476 344 515L456 706L570 706L360 364L583 0L472 0L343 217L299 298L297 298Q276 256 254 217L126 0L16 0Z"  horiz-adv-x="598" vert-adv-y="1000"  />

      
      <glyph glyph-name="uni59" unicode="&#x59;" d="M247 0L247 299L10 706L122 706L252 474L295 385L297 385Q318 433 340 474L470 706L582 706L345 299L345 0L247 0Z"  horiz-adv-x="592" vert-adv-y="1000"  />

      
      <glyph glyph-name="uni5a" unicode="&#x5a;" d="M36 0L36 66L375 556Q387 574 400 590Q413 606 420 613L426 620L426 622Q407 620 374 620L53 620L53 706L549 706L549 641L209 150Q197 133 184.50 117Q172 101 166 94L159 86L159 84Q177 86 211 86L553 86L553 0L36 0Z"  horiz-adv-x="594" vert-adv-y="1000"  />

      
      <glyph glyph-name="uni5b" unicode="&#x5b;" d="M86-95L86 735L252 735L252 662L171 662L171-21L252-21L252-95L86-95Z"  horiz-adv-x="301" vert-adv-y="1000"  />

      
      <glyph glyph-name="uni5c" unicode="&#x5c;" d="M292-42L38 744L124 744L378-42L292-42Z"  horiz-adv-x="416" vert-adv-y="1000"  />

      
      <glyph glyph-name="uni5d" unicode="&#x5d;" d="M49-21L130-21L130 662L49 662L49 735L215 735L215-95L49-95L49-21Z"  horiz-adv-x="301" vert-adv-y="1000"  />

      
      <glyph glyph-name="uni5e" unicode="&#x5e;" d="M69 247L269 706L332 706L532 247L444 247L300 599L157 247L69 247Z"  horiz-adv-x="612" vert-adv-y="1000"  />

      
      <glyph glyph-name="uni5f" unicode="&#x5f;" d="M29 0L568 0L568-78L29-78L29 0Z"  horiz-adv-x="597" vert-adv-y="1000"  />

      
      <glyph glyph-name="uni60" unicode="&#x60;" d="M256 755L161 882L265 882L338 755L256 755Z"  horiz-adv-x="499" vert-adv-y="1000"  />

      
      <glyph glyph-name="uni61" unicode="&#x61;" d="M33 138Q33 194 64 232Q95 270 146.50 286.50Q198 303 242 309Q286 315 335 315L361 315L361 325Q361 436 250 436Q177 436 108 387L69 458Q100 484 153 501Q206 518 258 518Q354 518 406 467Q458 416 458 320L458 0L367 0L367 51L370 91L368 91Q345 46 300.50 17Q256-12 202-12Q133-12 83 29Q33 70 33 138M130 146Q130 113 155 89Q180 65 225 65Q285 65 323 115Q361 165 361 226L361 245L336 245Q130 245 130 146Z"  horiz-adv-x="527" vert-adv-y="1000"  />

      
      <glyph glyph-name="uni62" unicode="&#x62;" d="M75 0L75 706L172 706L172 472L168 429L170 429Q193 470 237.50 494Q282 518 334 518Q436 518 496 445Q556 372 556 253Q556 133 492 60.50Q428-12 326-12Q276-12 233 12.50Q190 37 165 79L163 79Q166 64 166 41L166 0L75 0M169 251Q169 178 206.50 125Q244 72 312 72Q374 72 416 120.50Q458 169 458 252Q458 334 418.50 383.50Q379 433 315 433Q253 433 211 387Q169 341 169 251Z"  horiz-adv-x="601" vert-adv-y="1000"  />

      
      <glyph glyph-name="uni63" unicode="&#x63;" d="M42 253Q42 366 118.50 442Q195 518 313 518Q433 518 503 444L457 376Q399 434 317 434Q241 434 191 382.50Q141 331 141 254Q141 176 191.50 124Q242 72 320 72Q362 72 404.50 90.50Q447 109 476 140L515 69Q480 32 426 10Q372-12 313-12Q194-12 118 63Q42 138 42 253Z"  horiz-adv-x="545" vert-adv-y="1000"  />

      
      <glyph glyph-name="uni64" unicode="&#x64;" d="M44 253Q44 373 108 445.50Q172 518 273 518Q322 518 364 496.50Q406 475 430 435L432 435Q430 450 430 469L430 706L526 706L526 0L434 0L434 51L437 85L435 85Q412 42 368.50 15Q325-12 267-12Q166-12 105 61Q44 134 44 253M143 253Q143 171 182.50 121.50Q222 72 286 72Q348 72 390 118Q432 164 432 254Q432 328 394.50 380.50Q357 433 288 433Q226 433 184.50 384.50Q143 336 143 253Z"  horiz-adv-x="601" vert-adv-y="1000"  />

      
      <glyph glyph-name="uni65" unicode="&#x65;" d="M42 253Q42 372 114 445Q186 518 296 518Q399 518 457 450.50Q515 383 515 281Q515 268 511 240L143 240Q147 161 196.50 116.50Q246 72 317 72Q400 72 466 131L507 60Q471 27 417.50 7.50Q364-12 311-12Q193-12 117.50 63.50Q42 139 42 253M146 310L417 310Q415 373 380.50 408Q346 443 294 443Q237 443 196.50 407.50Q156 372 146 310Z"  horiz-adv-x="557" vert-adv-y="1000"  />

      
      <glyph glyph-name="uni66" unicode="&#x66;" d="M99 0L99 422L36 422L36 501L99 501L99 523Q99 571 113 606.50Q127 642 147.50 661.50Q168 681 195.50 692.50Q223 704 245 707.50Q267 711 290 711Q308 711 327 708L327 624Q319 626 302 626Q196 626 196 522L196 501L315 501L315 422L196 422L196 0L99 0Z"  horiz-adv-x="339" vert-adv-y="1000"  />

      
      <glyph glyph-name="uni67" unicode="&#x67;" d="M123-92Q191-126 262-126Q333-126 377.50-91.50Q422-57 422 15L422 56L425 88L423 88Q374 6 271 6Q168 6 106.50 79Q45 152 45 264Q45 376 104 447Q163 518 266 518Q317 518 360 499Q403 480 426 441L429 441Q426 447 426 456L426 506L519 506L519 21Q519-39 497.50-85Q476-131 439-157.50Q402-184 358-197Q314-210 264-210Q175-210 91-168L123-92M143 267Q143 187 182.50 138.50Q222 90 290 90Q349 90 386.50 131Q424 172 424 264Q424 434 281 434Q216 434 179.50 389.50Q143 345 143 267Z"  horiz-adv-x="594" vert-adv-y="1000"  />

      
      <glyph glyph-name="uni68" unicode="&#x68;" d="M75 0L75 706L172 706L172 444L168 402L170 402Q191 446 241 482Q291 518 360 518Q533 518 533 324L533 0L436 0L436 302Q436 363 416.50 396Q397 429 341 429Q268 429 220 375.50Q172 322 172 240L172 0L75 0Z"  horiz-adv-x="603" vert-adv-y="1000"  />

      
      <glyph glyph-name="uni69" unicode="&#x69;" d="M73 608L73 706L173 706L173 608L73 608M75 0L75 506L172 506L172 0L75 0Z"  horiz-adv-x="246" vert-adv-y="1000"  />

      
      <glyph glyph-name="uni6a" unicode="&#x6a;" d="M73 608L73 706L173 706L173 608L73 608M75-11L75 506L172 506L172-17Q172-65 157.50-101Q143-137 122.50-156.50Q102-176 73.50-188Q45-200 23-203Q1-206-22-206Q-32-206-56-204L-56-121Q-46-123-34-123Q-16-123 0-119Q16-115 34.50-104.50Q53-94 64-70Q75-46 75-11Z"  horiz-adv-x="246" vert-adv-y="1000"  />

      
      <glyph glyph-name="uni6b" unicode="&#x6b;" d="M75 0L75 706L172 706L172 320L244 320L381 506L491 506L323 283L323 281L510 0L397 0L246 237L172 237L172 0L75 0Z"  horiz-adv-x="522" vert-adv-y="1000"  />

      
      <glyph glyph-name="uni6c" unicode="&#x6c;" d="M75 139L75 706L171 706L171 155Q171 114 185.50 98.50Q200 83 226 83Q237 83 243 84L243-2Q222-5 211-5Q75-5 75 139Z"  horiz-adv-x="267" vert-adv-y="1000"  />

      
      <glyph glyph-name="uni6d" unicode="&#x6d;" d="M75 0L75 506L169 506L169 437L166 399L168 399Q187 446 237 482Q287 518 344 518Q469 518 495 403L497 403Q519 450 568.50 484Q618 518 677 518Q763 518 803.50 470Q844 422 844 324L844 0L747 0L747 303Q747 364 728.50 397Q710 430 658 430Q591 430 549.50 371.50Q508 313 508 236L508 0L411 0L411 303Q411 363 393.50 396.50Q376 430 324 430Q256 430 214 371Q172 312 172 236L172 0L75 0Z"  horiz-adv-x="914" vert-adv-y="1000"  />

      
      <glyph glyph-name="uni6e" unicode="&#x6e;" d="M75 0L75 506L169 506L169 437L166 399L168 399Q187 442 236.50 480Q286 518 360 518Q533 518 533 324L533 0L436 0L436 302Q436 363 416.50 396Q397 429 341 429Q268 429 220 375.50Q172 322 172 243L172 0L75 0Z"  horiz-adv-x="603" vert-adv-y="1000"  />

      
      <glyph glyph-name="uni6f" unicode="&#x6f;" d="M42 254Q42 367 121 442.50Q200 518 314 518Q429 518 508 443Q587 368 587 254Q587 140 508 64Q429-12 315-12Q201-12 121.50 64Q42 140 42 254M141 254Q141 175 191.50 123.50Q242 72 315 72Q387 72 438 124Q489 176 489 254Q489 332 438 383Q387 434 315 434Q242 434 191.50 383Q141 332 141 254Z"  horiz-adv-x="629" vert-adv-y="1000"  />

      
      <glyph glyph-name="uni70" unicode="&#x70;" d="M75-200L75 506L165 506L165 461L162 423L164 423Q188 468 233 493Q278 518 334 518Q436 518 496 445Q556 372 556 253Q556 133 492 60.50Q428-12 327-12Q226-12 170 74L168 74Q172 56 172 30L172-200L75-200M169 251Q169 179 207.50 125.50Q246 72 312 72Q374 72 416 120.50Q458 169 458 252Q458 334 418.50 383.50Q379 433 315 433Q253 433 211 387Q169 341 169 251Z"  horiz-adv-x="601" vert-adv-y="1000"  />

      
      <glyph glyph-name="uni71" unicode="&#x71;" d="M44 253Q44 373 108 445.50Q172 518 273 518Q323 518 366.50 494.50Q410 471 434 430L436 430Q434 445 434 465L434 506L526 506L526-200L430-200L430 34L432 78L430 78Q408 39 365.50 13.50Q323-12 267-12Q166-12 105 61Q44 134 44 253M143 253Q143 171 182.50 121.50Q222 72 286 72Q348 72 390 118Q432 164 432 254Q432 328 394.50 380.50Q357 433 288 433Q226 433 184.50 384.50Q143 336 143 253Z"  horiz-adv-x="601" vert-adv-y="1000"  />

      
      <glyph glyph-name="uni72" unicode="&#x72;" d="M75 0L75 506L169 506L169 415L166 378L168 378Q187 436 230 474Q273 512 329 512Q339 512 355 510L355 414Q347 416 327 416Q251 416 211.50 354.50Q172 293 172 210L172 0L75 0Z"  horiz-adv-x="376" vert-adv-y="1000"  />

      
      <glyph glyph-name="uni73" unicode="&#x73;" d="M32 62L78 128Q139 69 227 69Q266 69 289.50 86.50Q313 104 313 135Q313 161 286 180Q259 199 221 213Q183 227 145 244Q107 261 80 293.50Q53 326 53 372Q53 441 105 479.50Q157 518 235 518Q337 518 399 462L360 392Q338 413 302.50 425Q267 437 232 437Q193 437 169.50 421Q146 405 146 374Q146 347 173 328Q200 309 238 295.50Q276 282 314.50 265Q353 248 380 215.50Q407 183 407 137Q407 72 356 30Q305-12 225-12Q105-12 32 62Z"  horiz-adv-x="447" vert-adv-y="1000"  />

      
      <glyph glyph-name="uni74" unicode="&#x74;" d="M96 185L96 422L30 422L30 501L98 501L98 645L193 645L193 501L315 501L315 422L193 422L193 196Q193 167 201 145.50Q209 124 220.50 112Q232 100 247.50 93Q263 86 275.50 84Q288 82 301 82Q314 82 324 84L324-2Q300-5 290-5Q267-5 244.50-1.50Q222 2 194 13.50Q166 25 145.50 44.50Q125 64 110.50 100.50Q96 137 96 185Z"  horiz-adv-x="349" vert-adv-y="1000"  />

      
      <glyph glyph-name="uni75" unicode="&#x75;" d="M69 182L69 506L166 506L166 204Q166 144 186 111Q206 78 261 78Q336 78 381 134Q426 190 426 269L426 506L522 506L522 0L428 0L428 70L432 107L430 107Q410 62 360 25Q310-12 242-12Q69-12 69 182Z"  horiz-adv-x="597" vert-adv-y="1000"  />

      
      <glyph glyph-name="uni76" unicode="&#x76;" d="M209 0L19 506L122 506L245 164L263 95L265 95Q273 136 282 164L405 506L507 506L320 0L209 0Z"  horiz-adv-x="528" vert-adv-y="1000"  />

      
      <glyph glyph-name="uni77" unicode="&#x77;" d="M187 0L24 506L127 506L232 151L245 97L247 97Q253 125 261 151L370 505L460 505L569 151L582 97L584 97Q589 125 597 151L703 506L804 506L642 0L534 0L430 325L415 380L413 380Q407 351 399 325L295 0L187 0Z"  horiz-adv-x="828" vert-adv-y="1000"  />

      
      <glyph glyph-name="uni78" unicode="&#x78;" d="M17 0L190 260L27 506L138 506L232 352L248 322L250 322Q260 339 267 352L361 506L472 506L309 260L482 0L372 0L266 169L250 196L248 196Q241 181 233 169L127 0L17 0Z"  horiz-adv-x="499" vert-adv-y="1000"  />

      
      <glyph glyph-name="uni79" unicode="&#x79;" d="M50-105Q78-127 108-127Q169-127 200-52L225 6L13 506L122 506L249 175L268 114L270 114Q278 148 287 174L410 506L515 506L277-91Q255-149 211.50-179.50Q168-210 113-210Q88-210 64-202Q40-194 28-186L16-179L50-105Z"  horiz-adv-x="535" vert-adv-y="1000"  />

      
      <glyph glyph-name="uni7a" unicode="&#x7a;" d="M36 0L36 56L292 376L333 423L333 425Q317 423 284 423L47 423L47 506L464 506L464 450L209 130Q200 118 189 106.50Q178 95 172 89L166 83L166 81Q183 84 216 84L473 84L473 0L36 0Z"  horiz-adv-x="511" vert-adv-y="1000"  />

      
      <glyph glyph-name="uni7b" unicode="&#x7b;" d="M126 77L126 173Q126 217 104.50 246Q83 275 41 282L41 368Q81 376 103.50 404.50Q126 433 126 479L126 563Q126 608 138.50 641.50Q151 675 168.50 692.50Q186 710 210.50 721Q235 732 252.50 734.50Q270 737 288 737L311 736L311 662L298 662Q285 662 273 658.50Q261 655 245.50 645.50Q230 636 220.50 613.50Q211 591 211 557L211 454Q211 410 189 376Q167 342 130 327L130 325Q211 293 211 198L211 83Q211 49 220.50 26Q230 3 245.50-6.50Q261-16 273-19Q285-22 298-22L311-22L311-96Q302-98 288-98Q270-98 252.50-95.50Q235-93 210.50-82Q186-71 168.50-53.50Q151-36 138.50-2Q126 32 126 77Z"  horiz-adv-x="355" vert-adv-y="1000"  />

      
      <glyph glyph-name="uni7c" unicode="&#x7c;" d="M84-159L84 792L169 792L169-159L84-159Z"  horiz-adv-x="254" vert-adv-y="1000"  />

      
      <glyph glyph-name="uni7d" unicode="&#x7d;" d="M44-22L58-22Q71-22 82.50-19Q94-16 109.50-6.50Q125 3 134.50 26Q144 49 144 83L144 198Q144 243 165 277Q186 311 225 325L225 327Q191 340 167.50 374Q144 408 144 454L144 557Q144 591 134.50 613.50Q125 636 109.50 645.50Q94 655 82.50 658.50Q71 662 58 662L44 662L44 736Q53 737 67 737Q85 737 102.50 734.50Q120 732 144.50 721Q169 710 186.50 692.50Q204 675 216.50 641.50Q229 608 229 563L229 479Q229 435 251 405Q273 375 314 368L314 282Q274 277 251.50 246.50Q229 216 229 173L229 77Q229 32 216.50-2Q204-36 186.50-53.50Q169-71 144.50-82Q120-93 102.50-95.50Q85-98 67-98L44-96L44-22Z"  horiz-adv-x="355" vert-adv-y="1000"  />

      
      <glyph glyph-name="uni7e" unicode="&#x7e;" d="M68 204Q68 289 104.50 331Q141 373 208 373Q243 373 271.50 357.50Q300 342 315 324Q330 306 352 290.50Q374 275 399 275Q435 275 450.50 303Q466 331 466 369L545 369Q545 200 406 200Q377 200 353.50 210Q330 220 314.50 234.50Q299 249 284.50 263Q270 277 252 287Q234 297 213 297Q178 297 163 269Q148 241 148 204L68 204Z"  horiz-adv-x="611" vert-adv-y="1000"  />

      
      <glyph glyph-name="unia1" unicode="&#xa1;" d="M170 311L176-201L76-201L83 311L170 311M176 505L176 406L76 406L76 505L176 505Z"  horiz-adv-x="254" vert-adv-y="1000"  />

      
      <glyph glyph-name="unia2" unicode="&#xa2;" d="M264-12L264 73Q167 86 110 164.50Q53 243 53 353Q53 464 110 542.50Q167 621 264 634L264 718L335 718L335 634Q400 624 448.50 583.50Q497 543 523 479L435 445Q391 544 302 544Q231 544 191.50 490.50Q152 437 152 353Q152 267 191 215Q230 163 302 163Q391 163 435 261L523 227Q497 166 448.50 123Q400 80 335 73L335-12L264-12Z"  horiz-adv-x="577" vert-adv-y="1000"  />

      
      <glyph glyph-name="unia3" unicode="&#xa3;" d="M48 0L48 86L109 86L109 319L65 319L65 389L109 389L109 525Q109 608 170.50 663Q232 718 326 718Q421 718 493 654L435 585Q389 628 327 628Q273 628 241 597.50Q209 567 209 521L209 389L393 389L393 319L209 319L209 86L534 86L534 0L48 0Z"  horiz-adv-x="577" vert-adv-y="1000"  />

      
      <glyph glyph-name="unia4" unicode="&#xa4;" d="M124 0L124 170L54 170L54 240L124 240L124 310L54 310L54 390L124 390L124 706L357 706Q460 706 518.50 652Q577 598 577 505Q577 414 514.50 361.50Q452 309 353 309L223 309L223 240L473 240L473 170L223 170L223 0L124 0M223 390L340 390Q404 390 439.50 422.50Q475 455 475 509Q475 563 440 594.50Q405 626 342 626L223 626L223 390Z"  horiz-adv-x="610" vert-adv-y="1000"  />

      
      <glyph glyph-name="unia5" unicode="&#xa5;" d="M75 199L75 263L238 263L238 299L212 347L75 347L75 410L178 410L13 706L126 706L244 486L287 385L289 385Q310 439 332 486L451 706L564 706L399 410L500 410L500 347L365 347L338 299L338 263L500 263L500 199L338 199L338 0L238 0L238 199L75 199Z"  horiz-adv-x="577" vert-adv-y="1000"  />

      
      <glyph glyph-name="unia7" unicode="&#xa7;" d="M143 111L72 501Q67 520 67 547Q67 622 117.50 670Q168 718 255 718Q339 718 396 667L350 603Q308 637 255 637Q208 637 178.50 611Q149 585 149 536Q149 515 154 496L222 111L143 111M51-11L95 56Q138 19 192 19Q238 19 268 46.50Q298 74 298 124Q298 144 292 169L226 545L305 545L375 155Q380 128 380 110Q380 34 329-14Q278-62 192-62Q110-62 51-11Z"  horiz-adv-x="447" vert-adv-y="1000"  />

      
      <glyph glyph-name="unia8" unicode="&#xa8;" d="M294 781L294 882L373 882L373 781L294 781M126 781L126 882L206 882L206 781L126 781Z"  horiz-adv-x="499" vert-adv-y="1000"  />

      
      <glyph glyph-name="unia9" unicode="&#xa9;" d="M159 94.50Q159 94.50 107 147.75Q55 201 55 353Q55 505 159 611.50Q263 718 410 718Q560 718 664.50 611.50Q769 505 769 353Q769 201 664.50 94.50Q560-12 410-12Q263-12 159 94.50M209.50 564.50Q209.50 564.50 168.75 521.25Q128 478 128 353Q128 228 209.50 141.50Q291 55 410 55Q531 55 613.50 141Q696 227 696 353Q696 479 613.50 565Q531 651 410 651Q291 651 209.50 564.50M221 352Q221 434 275.50 493Q330 552 418 552Q469 552 513 525Q557 498 581 453L519 420Q506 446 478.50 464.50Q451 483 420 483Q364 483 330 445Q296 407 296 352Q296 296 329 258.50Q362 221 420 221Q451 221 477 238.50Q503 256 519 284L581 251Q560 210 515.50 181Q471 152 418 152Q329 152 275 210.50Q221 269 221 352Z"  horiz-adv-x="823" vert-adv-y="1000"  />

      
      <glyph glyph-name="uniaa" unicode="&#xaa;" d="M183 383Q139 383 106.50 408.50Q74 434 74 479Q74 589 263 589L273 589L273 595Q273 658 209 658Q168 658 126 630L97 679Q146 716 218 716Q280 716 312.50 683.50Q345 651 345 590L345 389L277 389L277 435L275 435Q264 413 239 398Q214 383 183 383M198 441Q230 441 251.50 468.50Q273 496 273 530L273 538L261 538Q147 538 147 484Q147 465 160.50 453Q174 441 198 441M74 265L74 322L348 322L348 265L74 265Z"  horiz-adv-x="426" vert-adv-y="1000"  />

      
      <glyph glyph-name="uniab" unicode="&#xab;" d="M247 282L411 488L508 488L344 282L508 77L411 77L247 282M209 77L45 282L209 488L306 488L142 282L306 77L209 77Z"  horiz-adv-x="561" vert-adv-y="1000"  />

      
      <glyph glyph-name="uniac" unicode="&#xac;" d="M72 340L72 418L549 418L549 150L468 150L468 340L72 340Z"  horiz-adv-x="626" vert-adv-y="1000"  />

      
      <glyph glyph-name="uniad" unicode="&#xad;" d="M70 242L70 328L362 328L362 242L70 242Z"  horiz-adv-x="432" vert-adv-y="1000"  />

      
      <glyph glyph-name="uniae" unicode="&#xae;" d="M159 94.50Q159 94.50 107 147.75Q55 201 55 353Q55 505 159 611.50Q263 718 410 718Q560 718 664.50 611.50Q769 505 769 353Q769 201 664.50 94.50Q560-12 410-12Q263-12 159 94.50M209.50 564.50Q209.50 564.50 168.75 521.25Q128 478 128 353Q128 228 209.50 141.50Q291 55 410 55Q531 55 613.50 141Q696 227 696 353Q696 479 613.50 565Q531 651 410 651Q291 651 209.50 564.50M288 166L288 544L434 544Q487 544 519.50 512Q552 480 552 428Q552 388 531 361.50Q510 335 483 328L483 326Q487 322 496 305L569 166L490 166L421 312L359 312L359 166L288 166M359 364L419 364Q448 364 464 381Q480 398 480 428Q480 457 464 473Q448 489 420 489L359 489L359 364Z"  horiz-adv-x="823" vert-adv-y="1000"  />

      
      <glyph glyph-name="uniaf" unicode="&#xaf;" d="M123 784L123 855L377 855L377 784L123 784Z"  horiz-adv-x="499" vert-adv-y="1000"  />

      
      <glyph glyph-name="unib0" unicode="&#xb0;" d="M312 465.50Q312 465.50 289.50 443.75Q267 422 204 422Q141 422 97 465Q53 508 53 570Q53 631 97 674.50Q141 718 204 718Q267 718 312 674.50Q357 631 357 570Q357 509 312 465.50M204 495Q236 495 257.50 516.50Q279 538 279 570Q279 601 257 623Q235 645 204 645Q173 645 152 623Q131 601 131 570Q131 538 152 516.50Q173 495 204 495Z"  horiz-adv-x="409" vert-adv-y="1000"  />

      
      <glyph glyph-name="unib1" unicode="&#xb1;" d="M24 246L24 324L248 324L248 570L330 570L330 324L553 324L553 246L330 246L330 0L248 0L248 246L24 246M40-95L537-95L537-172L40-172L40-95Z"  horiz-adv-x="577" vert-adv-y="1000"  />

      
      <glyph glyph-name="unib2" unicode="&#xb2;" d="M47 423Q44 441 44 459Q44 506 66 542.50Q88 579 119 601.50Q150 624 181 643.50Q212 663 234 686Q256 709 256 736Q256 764 235.50 782.50Q215 801 184 801Q139 801 99 753L50 798Q71 829 108.50 849.50Q146 870 187 870Q249 870 290 833.50Q331 797 331 739Q331 699 310.50 667Q290 635 260.50 614.50Q231 594 201 576Q171 558 149 536.50Q127 515 125 489L338 489L338 423L47 423Z"  horiz-adv-x="386" vert-adv-y="1000"  />

      
      <glyph glyph-name="unib3" unicode="&#xb3;" d="M182 413Q140 413 100 430Q60 447 35 479L77 532Q92 511 120 496.50Q148 482 179 482Q213 482 237.50 504Q262 526 262 558Q262 591 236 610Q210 629 174 629L140 629L123 667L212 770L237 794L237 796Q218 793 200 793L59 793L59 860L330 860L330 812L221 686Q271 679 304.50 646.50Q338 614 338 558Q338 499 294 456Q250 413 182 413Z"  horiz-adv-x="386" vert-adv-y="1000"  />

      
      <glyph glyph-name="unib4" unicode="&#xb4;" d="M161 755L233 882L338 882L242 755L161 755Z"  horiz-adv-x="499" vert-adv-y="1000"  />

      
      <glyph glyph-name="unib5" unicode="&#xb5;" d="M162 20Q170-30 170-60L170-200L84-200L84 506L181 506L181 204Q181 143 200 110.50Q219 78 274 78Q350 78 394.50 134Q439 190 439 269L439 506L536 506L536 0L443 0L443 69L445 105L442 105Q440 100 436 92Q432 84 416.50 64Q401 44 382 28.50Q363 13 328.50 0.50Q294-12 255-12Q192-12 164 20L162 20Z"  horiz-adv-x="601" vert-adv-y="1000"  />

      
      <glyph glyph-name="uni03BC" unicode="&#x03BC;" d="M162 20Q170-30 170-60L170-200L84-200L84 506L181 506L181 204Q181 143 200 110.50Q219 78 274 78Q350 78 394.50 134Q439 190 439 269L439 506L536 506L536 0L443 0L443 69L445 105L442 105Q440 100 436 92Q432 84 416.50 64Q401 44 382 28.50Q363 13 328.50 0.50Q294-12 255-12Q192-12 164 20L162 20Z"  horiz-adv-x="601" vert-adv-y="1000"  />

      
      <glyph glyph-name="unib6" unicode="&#xb6;" d="M275-50L275 241Q178 241 108 308.50Q38 376 38 474Q38 571 107.50 638.50Q177 706 275 706L546 706L546 620L349 620L349-50L275-50M411-50L411 563L486 563L486-50L411-50Z"  horiz-adv-x="597" vert-adv-y="1000"  />

      
      <glyph glyph-name="unib7" unicode="&#xb7;" d="M70 238L70 343L171 343L171 238L70 238Z"  horiz-adv-x="242" vert-adv-y="1000"  />

      
      <glyph glyph-name="unib8" unicode="&#xb8;" d="M190-88L219 23L268 12L268 5L256-50Q288-54 308-73Q328-92 328-123Q328-166 298.50-186.50Q269-207 226-207Q198-207 171-201L171-142Q188-149 213-149Q261-149 261-118Q261-87 208-87L190-88Z"  horiz-adv-x="499" vert-adv-y="1000"  />

      
      <glyph glyph-name="unib9" unicode="&#xb9;" d="M72 423L72 489L165 489L165 738L167 764L165 764Q161 755 148 742L112 708L67 757L173 860L240 860L240 489L332 489L332 423L72 423Z"  horiz-adv-x="386" vert-adv-y="1000"  />

      
      <glyph glyph-name="uniba" unicode="&#xba;" d="M362.50 431.50Q362.50 431.50 337.75 407.75Q313 384 241 384Q169 384 119.50 431.50Q70 479 70 552Q70 622 119.50 669.50Q169 717 240 717Q313 717 362.50 670Q412 623 412 552Q412 479 362.50 431.50M241 449Q282 449 310.50 478Q339 507 339 552Q339 596 310.50 624.50Q282 653 241 653Q199 653 170.50 624.50Q142 596 142 552Q142 507 170.50 478Q199 449 241 449M86 265L86 322L398 322L398 265L86 265Z"  horiz-adv-x="483" vert-adv-y="1000"  />

      
      <glyph glyph-name="unibb" unicode="&#xbb;" d="M254 77L418 282L254 488L351 488L515 282L351 77L254 77M53 77L217 282L53 488L150 488L314 282L150 77L53 77Z"  horiz-adv-x="561" vert-adv-y="1000"  />

      
      <glyph glyph-name="unibc" unicode="&#xbc;" d="M778 0L778 107L571 107L571 157L771 437L852 437L852 173L914 173L914 107L852 107L852 0L778 0M652 173L778 173L778 296L781 354L779 354Q766 327 750 306L652 175L652 173M336 0L261 0L597 706L671 706L336 0M60 270L60 336L153 336L153 585L155 611L153 611Q149 602 136 589L100 555L55 604L161 707L228 707L228 336L320 336L320 270L60 270Z"  horiz-adv-x="954" vert-adv-y="1000"  />

      
      <glyph glyph-name="unibd" unicode="&#xbd;" d="M602 0Q599 18 599 36Q599 83 621 119.50Q643 156 674 178.50Q705 201 736 220.50Q767 240 789 263Q811 286 811 313Q811 341 790.50 359.50Q770 378 739 378Q694 378 654 330L605 375Q626 406 663.50 426.50Q701 447 742 447Q804 447 845 410.50Q886 374 886 316Q886 276 865.50 244Q845 212 815.50 191.50Q786 171 756 153Q726 135 704 113.50Q682 92 680 66L893 66L893 0L602 0M336 0L261 0L597 706L671 706L336 0M59 270L59 336L152 336L152 585L154 611L152 611Q148 602 135 589L99 555L54 604L160 707L227 707L227 336L319 336L319 270L59 270Z"  horiz-adv-x="943" vert-adv-y="1000"  />

      
      <glyph glyph-name="unibe" unicode="&#xbe;" d="M793 0L793 107L586 107L586 157L786 437L867 437L867 173L929 173L929 107L867 107L867 0L793 0M667 173L793 173L793 296L796 354L794 354Q781 327 765 306L667 175L667 173M190 260Q148 260 108 277Q68 294 43 326L85 379Q100 358 128 343.50Q156 329 187 329Q221 329 245.50 351Q270 373 270 405Q270 438 244 457Q218 476 182 476L148 476L131 514L220 617L245 641L245 643Q226 640 208 640L67 640L67 707L338 707L338 659L229 533Q279 526 312.50 493.50Q346 461 346 405Q346 346 302 303Q258 260 190 260M351 0L276 0L612 706L686 706L351 0Z"  horiz-adv-x="970" vert-adv-y="1000"  />

      
      <glyph glyph-name="unibf" unicode="&#xbf;" d="M309 311L309 264Q309 222 291.50 188Q274 154 249 130.50Q224 107 199.50 85.50Q175 64 157.50 36Q140 8 140-25Q140-67 172.50-95.50Q205-124 254-124Q315-124 367-82L421-151Q349-215 247-215Q160-215 99-164Q38-113 38-32Q38 14 56 50.50Q74 87 100 111.50Q126 136 152.50 158.50Q179 181 197 209Q215 237 215 270L215 311L309 311M312 505L312 406L212 406L212 505L312 505Z"  horiz-adv-x="457" vert-adv-y="1000"  />

      
      <glyph glyph-name="unic0" unicode="&#xc0;" d="M15 0L268 706L373 706L626 0L524 0L453 203L187 203L116 0L15 0M213 285L427 285L349 508L321 609L319 609Q304 545 292 508L213 285M281 755L186 882L290 882L363 755L281 755Z"  horiz-adv-x="641" vert-adv-y="1000"  />

      
      <glyph glyph-name="unic1" unicode="&#xc1;" d="M15 0L268 706L373 706L626 0L524 0L453 203L187 203L116 0L15 0M213 285L427 285L349 508L321 609L319 609Q304 545 292 508L213 285M277 755L349 882L454 882L358 755L277 755Z"  horiz-adv-x="641" vert-adv-y="1000"  />

      
      <glyph glyph-name="unic2" unicode="&#xc2;" d="M15 0L268 706L373 706L626 0L524 0L453 203L187 203L116 0L15 0M213 285L427 285L349 508L321 609L319 609Q304 545 292 508L213 285M181 755L269 882L369 882L458 755L373 755L320 835L318 835L266 755L181 755Z"  horiz-adv-x="641" vert-adv-y="1000"  />

      
      <glyph glyph-name="unic3" unicode="&#xc3;" d="M15 0L268 706L373 706L626 0L524 0L453 203L187 203L116 0L15 0M213 285L427 285L349 508L321 609L319 609Q304 545 292 508L213 285M151 756Q151 883 253 883Q282 883 304 866Q326 849 344 832Q362 815 379 815Q399 815 408.50 834.50Q418 854 418 880L488 880Q488 753 386 753Q357 753 335 770Q313 787 295 804Q277 821 260 821Q221 821 221 756L151 756Z"  horiz-adv-x="641" vert-adv-y="1000"  />

      
      <glyph glyph-name="unic4" unicode="&#xc4;" d="M15 0L268 706L373 706L626 0L524 0L453 203L187 203L116 0L15 0M213 285L427 285L349 508L321 609L319 609Q304 545 292 508L213 285M364 781L364 882L443 882L443 781L364 781M196 781L196 882L276 882L276 781L196 781Z"  horiz-adv-x="641" vert-adv-y="1000"  />

      
      <glyph glyph-name="unic5" unicode="&#xc5;" d="M15 0L268 706L373 706L626 0L524 0L453 203L187 203L116 0L15 0M213 285L427 285L349 508L321 609L319 609Q304 545 292 508L213 285M320 743Q285 743 260 763.50Q235 784 235 817Q235 851 260 871.50Q285 892 320 892Q355 892 379.50 871.50Q404 851 404 817Q404 784 379 763.50Q354 743 320 743M320 784Q334 784 343.50 793.50Q353 803 353 817Q353 833 343.50 842.50Q334 852 320 852Q305 852 296 842.50Q287 833 287 817Q287 803 296 793.50Q305 784 320 784Z"  horiz-adv-x="641" vert-adv-y="1000"  />

      
      <glyph glyph-name="unic6" unicode="&#xc6;" d="M9 0L301 706L818 706L818 620L506 620L506 399L759 399L759 313L506 313L506 86L834 86L834 0L408 0L408 314L237 314L112 0L9 0M270 396L408 396L408 620L361 620L270 396Z"  horiz-adv-x="877" vert-adv-y="1000"  />

      
      <glyph glyph-name="unic7" unicode="&#xc7;" d="M352-88L372-10Q227 3 138.50 106Q50 209 50 357Q50 512 151.50 615Q253 718 409 718Q570 718 667 625L617 551Q578 586 522.50 607Q467 628 413 628Q293 628 222.50 551Q152 474 152 358Q152 241 224 160Q296 79 415 79Q474 79 531.50 103.50Q589 128 632 171L685 100Q579-6 426-11L418-50Q450-54 470-73Q490-92 490-123Q490-166 460.50-186.50Q431-207 388-207Q360-207 333-201L333-142Q350-149 375-149Q423-149 423-118Q423-87 370-87L352-88Z"  horiz-adv-x="717" vert-adv-y="1000"  />

      
      <glyph glyph-name="unic8" unicode="&#xc8;" d="M93 0L93 706L504 706L504 620L192 620L192 399L445 399L445 313L192 313L192 86L521 86L521 0L93 0M270 755L175 882L279 882L352 755L270 755Z"  horiz-adv-x="564" vert-adv-y="1000"  />

      
      <glyph glyph-name="unic9" unicode="&#xc9;" d="M265 755L337 882L442 882L346 755L265 755M93 0L93 706L504 706L504 620L192 620L192 399L445 399L445 313L192 313L192 86L521 86L521 0L93 0Z"  horiz-adv-x="564" vert-adv-y="1000"  />

      
      <glyph glyph-name="unica" unicode="&#xca;" d="M170 755L258 882L358 882L447 755L362 755L309 835L307 835L255 755L170 755M93 0L93 706L504 706L504 620L192 620L192 399L445 399L445 313L192 313L192 86L521 86L521 0L93 0Z"  horiz-adv-x="564" vert-adv-y="1000"  />

      
      <glyph glyph-name="unicb" unicode="&#xcb;" d="M354 781L354 882L433 882L433 781L354 781M186 781L186 882L266 882L266 781L186 781M93 0L93 706L504 706L504 620L192 620L192 399L445 399L445 313L192 313L192 86L521 86L521 0L93 0Z"  horiz-adv-x="564" vert-adv-y="1000"  />

      
      <glyph glyph-name="unicc" unicode="&#xcc;" d="M93 0L93 706L192 706L192 0L93 0M105 755L10 882L114 882L187 755L105 755Z"  horiz-adv-x="286" vert-adv-y="1000"  />

      
      <glyph glyph-name="unicd" unicode="&#xcd;" d="M93 0L93 706L192 706L192 0L93 0M101 755L173 882L278 882L182 755L101 755Z"  horiz-adv-x="286" vert-adv-y="1000"  />

      
      <glyph glyph-name="unice" unicode="&#xce;" d="M93 0L93 706L192 706L192 0L93 0M6 755L94 882L194 882L283 755L198 755L145 835L143 835L91 755L6 755Z"  horiz-adv-x="286" vert-adv-y="1000"  />

      
      <glyph glyph-name="unicf" unicode="&#xcf;" d="M93 0L93 706L192 706L192 0L93 0M189 781L189 882L268 882L268 781L189 781M21 781L21 882L101 882L101 781L21 781Z"  horiz-adv-x="286" vert-adv-y="1000"  />

      
      <glyph glyph-name="unid0" unicode="&#xd0;" d="M99 0L99 312L41 312L41 394L99 394L99 706L334 706Q497 706 594 612.50Q691 519 691 354Q691 188 594 94Q497 0 334 0L99 0M197 86L327 86Q448 86 518.50 155.50Q589 225 589 354Q589 481 518 550.50Q447 620 327 620L197 620L197 394L347 394L347 312L197 312L197 86Z"  horiz-adv-x="743" vert-adv-y="1000"  />

      
      <glyph glyph-name="unid1" unicode="&#xd1;" d="M93 0L93 706L191 706L506 248L564 145L566 145Q560 208 560 248L560 706L658 706L658 0L561 0L246 458L188 561L186 561Q192 498 192 458L192 0L93 0M207 756Q207 883 309 883Q338 883 360 866Q382 849 400 832Q418 815 435 815Q455 815 464.50 834.50Q474 854 474 880L544 880Q544 753 442 753Q413 753 391 770Q369 787 351 804Q333 821 316 821Q277 821 277 756L207 756Z"  horiz-adv-x="752" vert-adv-y="1000"  />

      
      <glyph glyph-name="unid2" unicode="&#xd2;" d="M49 358Q49 511 152 614.50Q255 718 412 718Q568 718 671 614.50Q774 511 774 358Q774 201 671 94.50Q568-12 412-12Q256-12 152.50 94.50Q49 201 49 358M151 358Q151 239 225 159Q299 79 412 79Q524 79 598 159Q672 239 672 358Q672 473 598 550.50Q524 628 412 628Q299 628 225 550.50Q151 473 151 358M372 755L277 882L381 882L454 755L372 755Z"  horiz-adv-x="823" vert-adv-y="1000"  />

      
      <glyph glyph-name="unid3" unicode="&#xd3;" d="M368 755L440 882L545 882L449 755L368 755M49 358Q49 511 152 614.50Q255 718 412 718Q568 718 671 614.50Q774 511 774 358Q774 201 671 94.50Q568-12 412-12Q256-12 152.50 94.50Q49 201 49 358M151 358Q151 239 225 159Q299 79 412 79Q524 79 598 159Q672 239 672 358Q672 473 598 550.50Q524 628 412 628Q299 628 225 550.50Q151 473 151 358Z"  horiz-adv-x="823" vert-adv-y="1000"  />

      
      <glyph glyph-name="unid4" unicode="&#xd4;" d="M273 755L361 882L461 882L550 755L465 755L412 835L410 835L358 755L273 755M49 358Q49 511 152 614.50Q255 718 412 718Q568 718 671 614.50Q774 511 774 358Q774 201 671 94.50Q568-12 412-12Q256-12 152.50 94.50Q49 201 49 358M151 358Q151 239 225 159Q299 79 412 79Q524 79 598 159Q672 239 672 358Q672 473 598 550.50Q524 628 412 628Q299 628 225 550.50Q151 473 151 358Z"  horiz-adv-x="823" vert-adv-y="1000"  />

      
      <glyph glyph-name="unid5" unicode="&#xd5;" d="M49 358Q49 511 152 614.50Q255 718 412 718Q568 718 671 614.50Q774 511 774 358Q774 201 671 94.50Q568-12 412-12Q256-12 152.50 94.50Q49 201 49 358M151 358Q151 239 225 159Q299 79 412 79Q524 79 598 159Q672 239 672 358Q672 473 598 550.50Q524 628 412 628Q299 628 225 550.50Q151 473 151 358M243 756Q243 883 345 883Q374 883 396 866Q418 849 436 832Q454 815 471 815Q491 815 500.50 834.50Q510 854 510 880L580 880Q580 753 478 753Q449 753 427 770Q405 787 387 804Q369 821 352 821Q313 821 313 756L243 756Z"  horiz-adv-x="823" vert-adv-y="1000"  />

      
      <glyph glyph-name="unid6" unicode="&#xd6;" d="M456 781L456 882L535 882L535 781L456 781M288 781L288 882L368 882L368 781L288 781M49 358Q49 511 152 614.50Q255 718 412 718Q568 718 671 614.50Q774 511 774 358Q774 201 671 94.50Q568-12 412-12Q256-12 152.50 94.50Q49 201 49 358M151 358Q151 239 225 159Q299 79 412 79Q524 79 598 159Q672 239 672 358Q672 473 598 550.50Q524 628 412 628Q299 628 225 550.50Q151 473 151 358Z"  horiz-adv-x="823" vert-adv-y="1000"  />

      
      <glyph glyph-name="unid7" unicode="&#xd7;" d="M28 55L235 285L28 515L84 570L288 343L492 570L548 515L341 285L548 55L492 0L288 227L84 0L28 55Z"  horiz-adv-x="577" vert-adv-y="1000"  />

      
      <glyph glyph-name="unid8" unicode="&#xd8;" d="M123 9L172 77Q115 128 82 201Q49 274 49 357Q49 510 154 614Q259 718 412 718Q512 718 597 669L643 732L692 698L647 635Q707 584 740.50 512.50Q774 441 774 357Q774 202 669.50 95Q565-12 412-12Q306-12 220 42L173-25L123 9M230 158L541 591Q481 628 412 628Q303 628 227 550Q151 472 151 357Q151 239 230 158M275 119Q337 79 411 79Q520 79 596 159Q672 239 672 357Q672 477 589 555L275 119Z"  horiz-adv-x="822" vert-adv-y="1000"  />

      
      <glyph glyph-name="unid9" unicode="&#xd9;" d="M85 250L85 706L184 706L184 251Q184 170 232.50 124.50Q281 79 363 79Q445 79 493 124.50Q541 170 541 252L541 706L640 706L640 250Q640 132 564 60Q488-12 364-12Q239-12 162 60Q85 132 85 250M323 755L228 882L332 882L405 755L323 755Z"  horiz-adv-x="726" vert-adv-y="1000"  />

      
      <glyph glyph-name="unida" unicode="&#xda;" d="M319 755L391 882L496 882L400 755L319 755M85 250L85 706L184 706L184 251Q184 170 232.50 124.50Q281 79 363 79Q445 79 493 124.50Q541 170 541 252L541 706L640 706L640 250Q640 132 564 60Q488-12 364-12Q239-12 162 60Q85 132 85 250Z"  horiz-adv-x="726" vert-adv-y="1000"  />

      
      <glyph glyph-name="unidb" unicode="&#xdb;" d="M224 755L312 882L412 882L501 755L416 755L363 835L361 835L309 755L224 755M85 250L85 706L184 706L184 251Q184 170 232.50 124.50Q281 79 363 79Q445 79 493 124.50Q541 170 541 252L541 706L640 706L640 250Q640 132 564 60Q488-12 364-12Q239-12 162 60Q85 132 85 250Z"  horiz-adv-x="726" vert-adv-y="1000"  />

      
      <glyph glyph-name="unidc" unicode="&#xdc;" d="M407 781L407 882L486 882L486 781L407 781M239 781L239 882L319 882L319 781L239 781M85 250L85 706L184 706L184 251Q184 170 232.50 124.50Q281 79 363 79Q445 79 493 124.50Q541 170 541 252L541 706L640 706L640 250Q640 132 564 60Q488-12 364-12Q239-12 162 60Q85 132 85 250Z"  horiz-adv-x="726" vert-adv-y="1000"  />

      
      <glyph glyph-name="unidd" unicode="&#xdd;" d="M247 0L247 299L10 706L122 706L252 474L295 385L297 385Q318 433 340 474L470 706L582 706L345 299L345 0L247 0M252 755L324 882L429 882L333 755L252 755Z"  horiz-adv-x="592" vert-adv-y="1000"  />

      
      <glyph glyph-name="unide" unicode="&#xde;" d="M93 0L93 706L192 706L192 586L352 586Q450 586 511.50 525.50Q573 465 573 365Q573 265 511 203Q449 141 351 141L192 141L192 0L93 0M192 227L336 227Q399 227 436 264Q473 301 473 365Q473 428 436.50 464Q400 500 337 500L192 500L192 227Z"  horiz-adv-x="608" vert-adv-y="1000"  />

      
      <glyph glyph-name="unidf" unicode="&#xdf;" d="M75 0L75 530Q75 617 139.50 667.50Q204 718 291 718Q373 718 427 671.50Q481 625 481 557Q481 524 465.50 495.50Q450 467 431 450Q412 433 396.50 412Q381 391 381 371Q381 354 399.50 336Q418 318 444 300Q470 282 496.50 261.50Q523 241 541.50 210.50Q560 180 560 145Q560 72 510.50 32.50Q461-7 389-7Q302-7 247 22L247 108Q307 77 377 77Q413 77 437 95Q461 113 461 149Q461 176 433 202.50Q405 229 371.50 248.50Q338 268 310 300Q282 332 282 368Q282 396 298 422Q314 448 332.50 465.50Q351 483 367 507.50Q383 532 383 556Q383 587 357.50 610.50Q332 634 288 634Q240 634 206 605Q172 576 172 523L172 0L75 0Z"  horiz-adv-x="588" vert-adv-y="1000"  />

      
      <glyph glyph-name="unie0" unicode="&#xe0;" d="M33 138Q33 194 64 232Q95 270 146.50 286.50Q198 303 242 309Q286 315 335 315L361 315L361 325Q361 436 250 436Q177 436 108 387L69 458Q100 484 153 501Q206 518 258 518Q354 518 406 467Q458 416 458 320L458 0L367 0L367 51L370 91L368 91Q345 46 300.50 17Q256-12 202-12Q133-12 83 29Q33 70 33 138M130 146Q130 113 155 89Q180 65 225 65Q285 65 323 115Q361 165 361 226L361 245L336 245Q130 245 130 146M223 580L128 707L232 707L305 580L223 580Z"  horiz-adv-x="527" vert-adv-y="1000"  />

      
      <glyph glyph-name="unie1" unicode="&#xe1;" d="M33 138Q33 194 64 232Q95 270 146.50 286.50Q198 303 242 309Q286 315 335 315L361 315L361 325Q361 436 250 436Q177 436 108 387L69 458Q100 484 153 501Q206 518 258 518Q354 518 406 467Q458 416 458 320L458 0L367 0L367 51L370 91L368 91Q345 46 300.50 17Q256-12 202-12Q133-12 83 29Q33 70 33 138M130 146Q130 113 155 89Q180 65 225 65Q285 65 323 115Q361 165 361 226L361 245L336 245Q130 245 130 146M216 580L288 707L393 707L297 580L216 580Z"  horiz-adv-x="527" vert-adv-y="1000"  />

      
      <glyph glyph-name="unie2" unicode="&#xe2;" d="M33 138Q33 194 64 232Q95 270 146.50 286.50Q198 303 242 309Q286 315 335 315L361 315L361 325Q361 436 250 436Q177 436 108 387L69 458Q100 484 153 501Q206 518 258 518Q354 518 406 467Q458 416 458 320L458 0L367 0L367 51L370 91L368 91Q345 46 300.50 17Q256-12 202-12Q133-12 83 29Q33 70 33 138M130 146Q130 113 155 89Q180 65 225 65Q285 65 323 115Q361 165 361 226L361 245L336 245Q130 245 130 146M121 580L209 707L309 707L398 580L313 580L260 660L258 660L206 580L121 580Z"  horiz-adv-x="527" vert-adv-y="1000"  />

      
      <glyph glyph-name="unie3" unicode="&#xe3;" d="M33 138Q33 194 64 232Q95 270 146.50 286.50Q198 303 242 309Q286 315 335 315L361 315L361 325Q361 436 250 436Q177 436 108 387L69 458Q100 484 153 501Q206 518 258 518Q354 518 406 467Q458 416 458 320L458 0L367 0L367 51L370 91L368 91Q345 46 300.50 17Q256-12 202-12Q133-12 83 29Q33 70 33 138M130 146Q130 113 155 89Q180 65 225 65Q285 65 323 115Q361 165 361 226L361 245L336 245Q130 245 130 146M92 581Q92 708 194 708Q223 708 245 691Q267 674 285 657Q303 640 320 640Q340 640 349.50 659.50Q359 679 359 705L429 705Q429 578 327 578Q298 578 276 595Q254 612 236 629Q218 646 201 646Q162 646 162 581L92 581Z"  horiz-adv-x="527" vert-adv-y="1000"  />

      
      <glyph glyph-name="unie4" unicode="&#xe4;" d="M33 138Q33 194 64 232Q95 270 146.50 286.50Q198 303 242 309Q286 315 335 315L361 315L361 325Q361 436 250 436Q177 436 108 387L69 458Q100 484 153 501Q206 518 258 518Q354 518 406 467Q458 416 458 320L458 0L367 0L367 51L370 91L368 91Q345 46 300.50 17Q256-12 202-12Q133-12 83 29Q33 70 33 138M130 146Q130 113 155 89Q180 65 225 65Q285 65 323 115Q361 165 361 226L361 245L336 245Q130 245 130 146M305 606L305 707L384 707L384 606L305 606M137 606L137 707L217 707L217 606L137 606Z"  horiz-adv-x="527" vert-adv-y="1000"  />

      
      <glyph glyph-name="unie5" unicode="&#xe5;" d="M33 138Q33 194 64 232Q95 270 146.50 286.50Q198 303 242 309Q286 315 335 315L361 315L361 325Q361 436 250 436Q177 436 108 387L69 458Q100 484 153 501Q206 518 258 518Q354 518 406 467Q458 416 458 320L458 0L367 0L367 51L370 91L368 91Q345 46 300.50 17Q256-12 202-12Q133-12 83 29Q33 70 33 138M130 146Q130 113 155 89Q180 65 225 65Q285 65 323 115Q361 165 361 226L361 245L336 245Q130 245 130 146M260 568Q225 568 200 588.50Q175 609 175 642Q175 676 200 696.50Q225 717 260 717Q295 717 319.50 696.50Q344 676 344 642Q344 609 319 588.50Q294 568 260 568M260 609Q274 609 283.50 618.50Q293 628 293 642Q293 658 283.50 667.50Q274 677 260 677Q245 677 236 667.50Q227 658 227 642Q227 628 236 618.50Q245 609 260 609Z"  horiz-adv-x="527" vert-adv-y="1000"  />

      
      <glyph glyph-name="unie6" unicode="&#xe6;" d="M34 142Q34 181 48.50 211Q63 241 90 259Q117 277 145 288.50Q173 300 211.50 305Q250 310 276.50 311.50Q303 313 336 313L361 313L361 325Q361 436 247 436Q175 436 107 387L68 458Q100 485 151.50 501.50Q203 518 253 518Q381 518 422 429L424 429Q484 518 603 518Q704 518 762 451Q820 384 820 283Q820 270 818 242L454 242Q458 161 505 116.50Q552 72 623 72Q707 72 773 130L813 60Q778 28 724 8Q670-12 617-12Q542-12 486 21Q430 54 400 114L398 114Q393 100 381.50 83Q370 66 348.50 43Q327 20 289.50 4.50Q252-11 207-11Q134-11 84 30Q34 71 34 142M458 313L722 313Q720 373 685.50 406.50Q651 440 602 440Q545 440 506.50 407Q468 374 458 313M132 147Q132 113 157 89.50Q182 66 228 66Q287 66 324.50 116.50Q362 167 362 228L362 242L314 242Q132 242 132 147Z"  horiz-adv-x="863" vert-adv-y="1000"  />

      
      <glyph glyph-name="unie7" unicode="&#xe7;" d="M251-88L271-9Q168 5 105 77Q42 149 42 253Q42 366 118.50 442Q195 518 313 518Q433 518 503 444L457 376Q399 434 317 434Q241 434 191 382.50Q141 331 141 254Q141 176 191.50 124Q242 72 320 72Q362 72 404.50 90.50Q447 109 476 140L515 69Q444-7 325-12L317-50Q349-54 369-73Q389-92 389-123Q389-166 359.50-186.50Q330-207 287-207Q259-207 232-201L232-142Q250-149 274-149Q322-149 322-118Q322-87 269-87L251-88Z"  horiz-adv-x="546" vert-adv-y="1000"  />

      
      <glyph glyph-name="unie8" unicode="&#xe8;" d="M42 253Q42 372 114 445Q186 518 296 518Q399 518 457 450.50Q515 383 515 281Q515 268 511 240L143 240Q147 161 196.50 116.50Q246 72 317 72Q400 72 466 131L507 60Q471 27 417.50 7.50Q364-12 311-12Q193-12 117.50 63.50Q42 139 42 253M146 310L417 310Q415 373 380.50 408Q346 443 294 443Q237 443 196.50 407.50Q156 372 146 310M257 580L162 707L266 707L339 580L257 580Z"  horiz-adv-x="557" vert-adv-y="1000"  />

      
      <glyph glyph-name="unie9" unicode="&#xe9;" d="M251 580L323 707L428 707L332 580L251 580M42 253Q42 372 114 445Q186 518 296 518Q399 518 457 450.50Q515 383 515 281Q515 268 511 240L143 240Q147 161 196.50 116.50Q246 72 317 72Q400 72 466 131L507 60Q471 27 417.50 7.50Q364-12 311-12Q193-12 117.50 63.50Q42 139 42 253M146 310L417 310Q415 373 380.50 408Q346 443 294 443Q237 443 196.50 407.50Q156 372 146 310Z"  horiz-adv-x="557" vert-adv-y="1000"  />

      
      <glyph glyph-name="uniea" unicode="&#xea;" d="M156 580L244 707L344 707L433 580L348 580L295 660L293 660L241 580L156 580M42 253Q42 372 114 445Q186 518 296 518Q399 518 457 450.50Q515 383 515 281Q515 268 511 240L143 240Q147 161 196.50 116.50Q246 72 317 72Q400 72 466 131L507 60Q471 27 417.50 7.50Q364-12 311-12Q193-12 117.50 63.50Q42 139 42 253M146 310L417 310Q415 373 380.50 408Q346 443 294 443Q237 443 196.50 407.50Q156 372 146 310Z"  horiz-adv-x="557" vert-adv-y="1000"  />

      
      <glyph glyph-name="unieb" unicode="&#xeb;" d="M340 606L340 707L419 707L419 606L340 606M172 606L172 707L252 707L252 606L172 606M42 253Q42 372 114 445Q186 518 296 518Q399 518 457 450.50Q515 383 515 281Q515 268 511 240L143 240Q147 161 196.50 116.50Q246 72 317 72Q400 72 466 131L507 60Q471 27 417.50 7.50Q364-12 311-12Q193-12 117.50 63.50Q42 139 42 253M146 310L417 310Q415 373 380.50 408Q346 443 294 443Q237 443 196.50 407.50Q156 372 146 310Z"  horiz-adv-x="557" vert-adv-y="1000"  />

      
      <glyph glyph-name="uniec" unicode="&#xec;" d="M75 0L75 506L172 506L172 0L75 0M86 580L-9 707L95 707L168 580L86 580Z"  horiz-adv-x="246" vert-adv-y="1000"  />

      
      <glyph glyph-name="unied" unicode="&#xed;" d="M81 580L153 707L258 707L162 580L81 580M75 0L75 506L172 506L172 0L75 0Z"  horiz-adv-x="246" vert-adv-y="1000"  />

      
      <glyph glyph-name="uniee" unicode="&#xee;" d="M-14 580L74 707L174 707L263 580L178 580L125 660L123 660L71 580L-14 580M75 0L75 506L172 506L172 0L75 0Z"  horiz-adv-x="246" vert-adv-y="1000"  />

      
      <glyph glyph-name="unief" unicode="&#xef;" d="M170 606L170 707L249 707L249 606L170 606M2 606L2 707L82 707L82 606L2 606M75 0L75 506L172 506L172 0L75 0Z"  horiz-adv-x="246" vert-adv-y="1000"  />

      
      <glyph glyph-name="unif0" unicode="&#xf0;" d="M44 235Q44 329 107.50 397.50Q171 466 281 466Q317 466 347.50 455.50Q378 445 391 434L404 424L406 424Q376 504 297 557L116 477L106 539L230 594Q174 623 101 640L128 719Q249 690 335 639L474 700L483 639L391 597Q535 477 535 275Q535 222 520.50 173Q506 124 477 81.50Q448 39 397 13.50Q346-12 281-12Q173-12 108.50 61.50Q44 135 44 235M143 233Q143 167 180 119Q217 71 284 71Q359 71 397.50 127.50Q436 184 436 258Q436 315 397.50 351.50Q359 388 295 388Q222 388 182.50 342.50Q143 297 143 233Z"  horiz-adv-x="581" vert-adv-y="1000"  />

      
      <glyph glyph-name="unif1" unicode="&#xf1;" d="M75 0L75 506L169 506L169 437L166 399L168 399Q187 442 236.50 480Q286 518 360 518Q533 518 533 324L533 0L436 0L436 302Q436 363 416.50 396Q397 429 341 429Q268 429 220 375.50Q172 322 172 243L172 0L75 0M143 581Q143 708 245 708Q274 708 296 691Q318 674 336 657Q354 640 371 640Q391 640 400.50 659.50Q410 679 410 705L480 705Q480 578 378 578Q349 578 327 595Q305 612 287 629Q269 646 252 646Q213 646 213 581L143 581Z"  horiz-adv-x="603" vert-adv-y="1000"  />

      
      <glyph glyph-name="unif2" unicode="&#xf2;" d="M42 254Q42 367 121 442.50Q200 518 314 518Q429 518 508 443Q587 368 587 254Q587 140 508 64Q429-12 315-12Q201-12 121.50 64Q42 140 42 254M141 254Q141 175 191.50 123.50Q242 72 315 72Q387 72 438 124Q489 176 489 254Q489 332 438 383Q387 434 315 434Q242 434 191.50 383Q141 332 141 254M275 580L180 707L284 707L357 580L275 580Z"  horiz-adv-x="629" vert-adv-y="1000"  />

      
      <glyph glyph-name="unif3" unicode="&#xf3;" d="M271 580L343 707L448 707L352 580L271 580M42 254Q42 367 121 442.50Q200 518 314 518Q429 518 508 443Q587 368 587 254Q587 140 508 64Q429-12 315-12Q201-12 121.50 64Q42 140 42 254M141 254Q141 175 191.50 123.50Q242 72 315 72Q387 72 438 124Q489 176 489 254Q489 332 438 383Q387 434 315 434Q242 434 191.50 383Q141 332 141 254Z"  horiz-adv-x="629" vert-adv-y="1000"  />

      
      <glyph glyph-name="unif4" unicode="&#xf4;" d="M176 580L264 707L364 707L453 580L368 580L315 660L313 660L261 580L176 580M42 254Q42 367 121 442.50Q200 518 314 518Q429 518 508 443Q587 368 587 254Q587 140 508 64Q429-12 315-12Q201-12 121.50 64Q42 140 42 254M141 254Q141 175 191.50 123.50Q242 72 315 72Q387 72 438 124Q489 176 489 254Q489 332 438 383Q387 434 315 434Q242 434 191.50 383Q141 332 141 254Z"  horiz-adv-x="629" vert-adv-y="1000"  />

      
      <glyph glyph-name="unif5" unicode="&#xf5;" d="M42 254Q42 367 121 442.50Q200 518 314 518Q429 518 508 443Q587 368 587 254Q587 140 508 64Q429-12 315-12Q201-12 121.50 64Q42 140 42 254M141 254Q141 175 191.50 123.50Q242 72 315 72Q387 72 438 124Q489 176 489 254Q489 332 438 383Q387 434 315 434Q242 434 191.50 383Q141 332 141 254M146 581Q146 708 248 708Q277 708 299 691Q321 674 339 657Q357 640 374 640Q394 640 403.50 659.50Q413 679 413 705L483 705Q483 578 381 578Q352 578 330 595Q308 612 290 629Q272 646 255 646Q216 646 216 581L146 581Z"  horiz-adv-x="629" vert-adv-y="1000"  />

      
      <glyph glyph-name="unif6" unicode="&#xf6;" d="M359 606L359 707L438 707L438 606L359 606M191 606L191 707L271 707L271 606L191 606M42 254Q42 367 121 442.50Q200 518 314 518Q429 518 508 443Q587 368 587 254Q587 140 508 64Q429-12 315-12Q201-12 121.50 64Q42 140 42 254M141 254Q141 175 191.50 123.50Q242 72 315 72Q387 72 438 124Q489 176 489 254Q489 332 438 383Q387 434 315 434Q242 434 191.50 383Q141 332 141 254Z"  horiz-adv-x="629" vert-adv-y="1000"  />

      
      <glyph glyph-name="unif7" unicode="&#xf7;" d="M241 435L241 526L335 526L335 435L241 435M36 246L36 324L541 324L541 246L36 246M241 44L241 135L335 135L335 44L241 44Z"  horiz-adv-x="577" vert-adv-y="1000"  />

      
      <glyph glyph-name="unif8" unicode="&#xf8;" d="M100-4L138 49Q42 127 42 254Q42 368 121 443Q200 518 315 518Q387 518 450 485L490 540L537 506L498 452Q588 375 588 254Q588 140 508.50 64Q429-12 315-12Q244-12 187 18L148-38L100-4M192 125L398 412Q360 434 315 434Q243 434 192 383Q141 332 141 254Q141 178 192 125M239 90Q277 72 315 72Q388 72 438.50 123.50Q489 175 489 254Q489 326 443 374L239 90Z"  horiz-adv-x="630" vert-adv-y="1000"  />

      
      <glyph glyph-name="unif9" unicode="&#xf9;" d="M69 182L69 506L166 506L166 204Q166 144 186 111Q206 78 261 78Q336 78 381 134Q426 190 426 269L426 506L522 506L522 0L428 0L428 70L432 107L430 107Q410 62 360 25Q310-12 242-12Q69-12 69 182M257 580L162 707L266 707L339 580L257 580Z"  horiz-adv-x="597" vert-adv-y="1000"  />

      
      <glyph glyph-name="unifa" unicode="&#xfa;" d="M252 580L324 707L429 707L333 580L252 580M69 182L69 506L166 506L166 204Q166 144 186 111Q206 78 261 78Q336 78 381 134Q426 190 426 269L426 506L522 506L522 0L428 0L428 70L432 107L430 107Q410 62 360 25Q310-12 242-12Q69-12 69 182Z"  horiz-adv-x="597" vert-adv-y="1000"  />

      
      <glyph glyph-name="unifb" unicode="&#xfb;" d="M156 580L244 707L344 707L433 580L348 580L295 660L293 660L241 580L156 580M69 182L69 506L166 506L166 204Q166 144 186 111Q206 78 261 78Q336 78 381 134Q426 190 426 269L426 506L522 506L522 0L428 0L428 70L432 107L430 107Q410 62 360 25Q310-12 242-12Q69-12 69 182Z"  horiz-adv-x="597" vert-adv-y="1000"  />

      
      <glyph glyph-name="unifc" unicode="&#xfc;" d="M340 606L340 707L419 707L419 606L340 606M172 606L172 707L252 707L252 606L172 606M69 182L69 506L166 506L166 204Q166 144 186 111Q206 78 261 78Q336 78 381 134Q426 190 426 269L426 506L522 506L522 0L428 0L428 70L432 107L430 107Q410 62 360 25Q310-12 242-12Q69-12 69 182Z"  horiz-adv-x="597" vert-adv-y="1000"  />

      
      <glyph glyph-name="unifd" unicode="&#xfd;" d="M50-105Q78-127 108-127Q169-127 200-52L225 6L13 506L122 506L249 175L268 114L270 114Q278 148 287 174L410 506L515 506L277-91Q255-149 211.50-179.50Q168-210 113-210Q88-210 64-202Q40-194 28-186L16-179L50-105M225 580L297 707L402 707L306 580L225 580Z"  horiz-adv-x="535" vert-adv-y="1000"  />

      
      <glyph glyph-name="unife" unicode="&#xfe;" d="M75-200L75 706L172 706L172 475L170 434L172 434Q193 472 234.50 495Q276 518 332 518Q434 518 495 444Q556 370 556 253Q556 136 492.50 62Q429-12 329-12Q281-12 237.50 9.50Q194 31 172 71L170 71Q172 53 172 27L172-200L75-200M169 252Q169 172 208.50 121.50Q248 71 314 71Q376 71 417 121.50Q458 172 458 253Q458 333 418.50 383.50Q379 434 316 434Q253 434 211 389Q169 344 169 252Z"  horiz-adv-x="600" vert-adv-y="1000"  />

      
      <glyph glyph-name="uniff" unicode="&#xff;" d="M50-105Q78-127 108-127Q169-127 200-52L225 6L13 506L122 506L249 175L268 114L270 114Q278 148 287 174L410 506L515 506L277-91Q255-149 211.50-179.50Q168-210 113-210Q88-210 64-202Q40-194 28-186L16-179L50-105M313 606L313 707L392 707L392 606L313 606M145 606L145 707L225 707L225 606L145 606Z"  horiz-adv-x="535" vert-adv-y="1000"  />

      
      <glyph glyph-name="uni0100" unicode="&#x0100;" d="M15 0L268 706L373 706L626 0L524 0L453 203L187 203L116 0L15 0M213 285L427 285L349 508L321 609L319 609Q304 545 292 508L213 285M193 784L193 855L447 855L447 784L193 784Z"  horiz-adv-x="641" vert-adv-y="1000"  />

      
      <glyph glyph-name="uni0101" unicode="&#x0101;" d="M33 138Q33 194 64 232Q95 270 146.50 286.50Q198 303 242 309Q286 315 335 315L361 315L361 325Q361 436 250 436Q177 436 108 387L69 458Q100 484 153 501Q206 518 258 518Q354 518 406 467Q458 416 458 320L458 0L367 0L367 51L370 91L368 91Q345 46 300.50 17Q256-12 202-12Q133-12 83 29Q33 70 33 138M130 146Q130 113 155 89Q180 65 225 65Q285 65 323 115Q361 165 361 226L361 245L336 245Q130 245 130 146M134 609L134 680L388 680L388 609L134 609Z"  horiz-adv-x="527" vert-adv-y="1000"  />

      
      <glyph glyph-name="uni0102" unicode="&#x0102;" d="M15 0L268 706L373 706L626 0L524 0L453 203L187 203L116 0L15 0M213 285L427 285L349 508L321 609L319 609Q304 545 292 508L213 285M320 751Q265 751 226.50 782Q188 813 188 868L188 882L260 882L260 869Q260 839 277.50 824Q295 809 320 809Q344 809 361.50 824.50Q379 840 379 870L379 882L451 882L451 868Q451 813 412.50 782Q374 751 320 751Z"  horiz-adv-x="641" vert-adv-y="1000"  />

      
      <glyph glyph-name="uni0103" unicode="&#x0103;" d="M33 138Q33 194 64 232Q95 270 146.50 286.50Q198 303 242 309Q286 315 335 315L361 315L361 325Q361 436 250 436Q177 436 108 387L69 458Q100 484 153 501Q206 518 258 518Q354 518 406 467Q458 416 458 320L458 0L367 0L367 51L370 91L368 91Q345 46 300.50 17Q256-12 202-12Q133-12 83 29Q33 70 33 138M130 146Q130 113 155 89Q180 65 225 65Q285 65 323 115Q361 165 361 226L361 245L336 245Q130 245 130 146M260 576Q205 576 166.50 607Q128 638 128 693L128 707L200 707L200 694Q200 664 217.50 649Q235 634 260 634Q284 634 301.50 649.50Q319 665 319 695L319 707L391 707L391 693Q391 638 352.50 607Q314 576 260 576Z"  horiz-adv-x="527" vert-adv-y="1000"  />

      
      <glyph glyph-name="uni0104" unicode="&#x0104;" d="M15 0L268 706L373 706L626 0Q562-51 562-89Q562-106 576-116.50Q590-127 604-130L617-132L594-207Q589-207 581.50-205.50Q574-204 554-198Q534-192 518.50-182.50Q503-173 490.50-154.50Q478-136 478-112Q478-52 544 0L524 0L453 203L187 203L116 0L15 0M213 285L427 285L349 508L321 609L319 609Q304 545 292 508L213 285Z"  horiz-adv-x="641" vert-adv-y="1000"  />

      
      <glyph glyph-name="uni0105" unicode="&#x0105;" d="M33 138Q33 194 64 232Q95 270 146.50 286.50Q198 303 242 309Q286 315 335 315L361 315L361 325Q361 436 250 436Q177 436 108 387L69 458Q100 484 153 501Q206 518 258 518Q354 518 406 467Q458 416 458 320L458 0Q393-50 393-89Q393-106 406.50-116.50Q420-127 434-130L448-132L426-207Q421-207 413-205.50Q405-204 385-198Q365-192 349.50-182.50Q334-173 321.50-154.50Q309-136 309-112Q309-55 378 0L367 0L367 51L370 91L368 91Q345 46 300.50 17Q256-12 202-12Q133-12 83 29Q33 70 33 138M130 146Q130 113 155 89Q180 65 225 65Q285 65 323 115Q361 165 361 226L361 245L336 245Q130 245 130 146Z"  horiz-adv-x="527" vert-adv-y="1000"  />

      
      <glyph glyph-name="uni0106" unicode="&#x0106;" d="M358 755L430 882L535 882L439 755L358 755M50 357Q50 512 151.50 615Q253 718 409 718Q570 718 667 625L617 551Q578 586 522.50 607Q467 628 413 628Q293 628 222.50 551Q152 474 152 358Q152 241 224 160Q296 79 415 79Q474 79 531.50 103.50Q589 128 632 171L685 100Q573-12 412-12Q251-12 150.50 93.50Q50 199 50 357Z"  horiz-adv-x="717" vert-adv-y="1000"  />

      
      <glyph glyph-name="uni0107" unicode="&#x0107;" d="M249 580L321 707L426 707L330 580L249 580M42 253Q42 366 118.50 442Q195 518 313 518Q433 518 503 444L457 376Q399 434 317 434Q241 434 191 382.50Q141 331 141 254Q141 176 191.50 124Q242 72 320 72Q362 72 404.50 90.50Q447 109 476 140L515 69Q480 32 426 10Q372-12 313-12Q194-12 118 63Q42 138 42 253Z"  horiz-adv-x="545" vert-adv-y="1000"  />

      
      <glyph glyph-name="uni0108" unicode="&#x0108;" d="M263 755L351 882L451 882L540 755L455 755L402 835L400 835L348 755L263 755M50 357Q50 512 151.50 615Q253 718 409 718Q570 718 667 625L617 551Q578 586 522.50 607Q467 628 413 628Q293 628 222.50 551Q152 474 152 358Q152 241 224 160Q296 79 415 79Q474 79 531.50 103.50Q589 128 632 171L685 100Q573-12 412-12Q251-12 150.50 93.50Q50 199 50 357Z"  horiz-adv-x="717" vert-adv-y="1000"  />

      
      <glyph glyph-name="uni0109" unicode="&#x0109;" d="M154 580L242 707L342 707L431 580L346 580L293 660L291 660L239 580L154 580M42 253Q42 366 118.50 442Q195 518 313 518Q433 518 503 444L457 376Q399 434 317 434Q241 434 191 382.50Q141 331 141 254Q141 176 191.50 124Q242 72 320 72Q362 72 404.50 90.50Q447 109 476 140L515 69Q480 32 426 10Q372-12 313-12Q194-12 118 63Q42 138 42 253Z"  horiz-adv-x="545" vert-adv-y="1000"  />

      
      <glyph glyph-name="uni010A" unicode="&#x010A;" d="M50 357Q50 512 151.50 615Q253 718 409 718Q570 718 667 625L617 551Q578 586 522.50 607Q467 628 413 628Q293 628 222.50 551Q152 474 152 358Q152 241 224 160Q296 79 415 79Q474 79 531.50 103.50Q589 128 632 171L685 100Q573-12 412-12Q251-12 150.50 93.50Q50 199 50 357M359 784L359 882L445 882L445 784L359 784Z"  horiz-adv-x="717" vert-adv-y="1000"  />

      
      <glyph glyph-name="uni010B" unicode="&#x010B;" d="M42 253Q42 366 118.50 442Q195 518 313 518Q433 518 503 444L457 376Q399 434 317 434Q241 434 191 382.50Q141 331 141 254Q141 176 191.50 124Q242 72 320 72Q362 72 404.50 90.50Q447 109 476 140L515 69Q480 32 426 10Q372-12 313-12Q194-12 118 63Q42 138 42 253M251 609L251 707L337 707L337 609L251 609Z"  horiz-adv-x="545" vert-adv-y="1000"  />

      
      <glyph glyph-name="uni010C" unicode="&#x010C;" d="M351 755L263 882L348 882L400 801L402 801L455 882L540 882L451 755L351 755M50 357Q50 512 151.50 615Q253 718 409 718Q570 718 667 625L617 551Q578 586 522.50 607Q467 628 413 628Q293 628 222.50 551Q152 474 152 358Q152 241 224 160Q296 79 415 79Q474 79 531.50 103.50Q589 128 632 171L685 100Q573-12 412-12Q251-12 150.50 93.50Q50 199 50 357Z"  horiz-adv-x="717" vert-adv-y="1000"  />

      
      <glyph glyph-name="uni010D" unicode="&#x010D;" d="M242 580L154 707L239 707L291 626L293 626L346 707L431 707L342 580L242 580M42 253Q42 366 118.50 442Q195 518 313 518Q433 518 503 444L457 376Q399 434 317 434Q241 434 191 382.50Q141 331 141 254Q141 176 191.50 124Q242 72 320 72Q362 72 404.50 90.50Q447 109 476 140L515 69Q480 32 426 10Q372-12 313-12Q194-12 118 63Q42 138 42 253Z"  horiz-adv-x="545" vert-adv-y="1000"  />

      
      <glyph glyph-name="uni010E" unicode="&#x010E;" d="M291 755L203 882L288 882L340 801L342 801L395 882L480 882L391 755L291 755M93 0L93 706L328 706Q491 706 588 612.50Q685 519 685 354Q685 188 588 94Q491 0 328 0L93 0M192 86L321 86Q442 86 512.50 155.50Q583 225 583 354Q583 481 512 550.50Q441 620 321 620L192 620L192 86Z"  horiz-adv-x="737" vert-adv-y="1000"  />

      
      <glyph glyph-name="uni010F" unicode="&#x010F;" d="M583 705L668 705Q675 678 675 654Q675 613 650 560L576 560Q595 614 595 644Q595 674 583 705M44 253Q44 373 108 445.50Q172 518 273 518Q322 518 364 496.50Q406 475 430 435L432 435Q430 450 430 469L430 706L526 706L526 0L434 0L434 51L437 85L435 85Q412 42 368.50 15Q325-12 267-12Q166-12 105 61Q44 134 44 253M143 253Q143 171 182.50 121.50Q222 72 286 72Q348 72 390 118Q432 164 432 254Q432 328 394.50 380.50Q357 433 288 433Q226 433 184.50 384.50Q143 336 143 253Z"  horiz-adv-x="610" vert-adv-y="1000"  />

      
      <glyph glyph-name="uni0110" unicode="&#x0110;" d="M99 0L99 312L41 312L41 394L99 394L99 706L334 706Q497 706 594 612.50Q691 519 691 354Q691 188 594 94Q497 0 334 0L99 0M197 86L327 86Q448 86 518.50 155.50Q589 225 589 354Q589 481 518 550.50Q447 620 327 620L197 620L197 394L347 394L347 312L197 312L197 86Z"  horiz-adv-x="743" vert-adv-y="1000"  />

      
      <glyph glyph-name="uni0111" unicode="&#x0111;" d="M44 253Q44 373 108 445.50Q172 518 273 518Q321 518 363.50 497.50Q406 477 429 438L431 438Q430 453 430 472L430 563L299 563L299 626L430 626L430 706L526 706L526 626L602 626L602 563L526 563L526 0L434 0L434 48L435 82L433 82Q410 39 367 13.50Q324-12 267-12Q166-12 105 61Q44 134 44 253M143 253Q143 171 182.50 121.50Q222 72 286 72Q348 72 390 118Q432 164 432 254Q432 328 394.50 381Q357 434 288 434Q226 434 184.50 385Q143 336 143 253Z"  horiz-adv-x="601" vert-adv-y="1000"  />

      
      <glyph glyph-name="uni0112" unicode="&#x0112;" d="M93 0L93 706L504 706L504 620L192 620L192 399L445 399L445 313L192 313L192 86L521 86L521 0L93 0M183 784L183 855L437 855L437 784L183 784Z"  horiz-adv-x="564" vert-adv-y="1000"  />

      
      <glyph glyph-name="uni0113" unicode="&#x0113;" d="M42 253Q42 372 114 445Q186 518 296 518Q399 518 457 450.50Q515 383 515 281Q515 268 511 240L143 240Q147 161 196.50 116.50Q246 72 317 72Q400 72 466 131L507 60Q471 27 417.50 7.50Q364-12 311-12Q193-12 117.50 63.50Q42 139 42 253M146 310L417 310Q415 373 380.50 408Q346 443 294 443Q237 443 196.50 407.50Q156 372 146 310M169 609L169 680L423 680L423 609L169 609Z"  horiz-adv-x="557" vert-adv-y="1000"  />

      
      <glyph glyph-name="uni0114" unicode="&#x0114;" d="M93 0L93 706L504 706L504 620L192 620L192 399L445 399L445 313L192 313L192 86L521 86L521 0L93 0M309 751Q254 751 215.50 782Q177 813 177 868L177 882L249 882L249 869Q249 839 266.50 824Q284 809 309 809Q333 809 350.50 824.50Q368 840 368 870L368 882L440 882L440 868Q440 813 401.50 782Q363 751 309 751Z"  horiz-adv-x="564" vert-adv-y="1000"  />

      
      <glyph glyph-name="uni0115" unicode="&#x0115;" d="M42 253Q42 372 114 445Q186 518 296 518Q399 518 457 450.50Q515 383 515 281Q515 268 511 240L143 240Q147 161 196.50 116.50Q246 72 317 72Q400 72 466 131L507 60Q471 27 417.50 7.50Q364-12 311-12Q193-12 117.50 63.50Q42 139 42 253M146 310L417 310Q415 373 380.50 408Q346 443 294 443Q237 443 196.50 407.50Q156 372 146 310M295 576Q240 576 201.50 607Q163 638 163 693L163 707L235 707L235 694Q235 664 252.50 649Q270 634 295 634Q319 634 336.50 649.50Q354 665 354 695L354 707L426 707L426 693Q426 638 387.50 607Q349 576 295 576Z"  horiz-adv-x="557" vert-adv-y="1000"  />

      
      <glyph glyph-name="uni0116" unicode="&#x0116;" d="M93 0L93 706L504 706L504 620L192 620L192 399L445 399L445 313L192 313L192 86L521 86L521 0L93 0M266 784L266 882L352 882L352 784L266 784Z"  horiz-adv-x="564" vert-adv-y="1000"  />

      
      <glyph glyph-name="uni0117" unicode="&#x0117;" d="M42 253Q42 372 114 445Q186 518 296 518Q399 518 457 450.50Q515 383 515 281Q515 268 511 240L143 240Q147 161 196.50 116.50Q246 72 317 72Q400 72 466 131L507 60Q471 27 417.50 7.50Q364-12 311-12Q193-12 117.50 63.50Q42 139 42 253M146 310L417 310Q415 373 380.50 408Q346 443 294 443Q237 443 196.50 407.50Q156 372 146 310M252 609L252 707L338 707L338 609L252 609Z"  horiz-adv-x="557" vert-adv-y="1000"  />

      
      <glyph glyph-name="uni0118" unicode="&#x0118;" d="M93 0L93 706L504 706L504 620L192 620L192 399L445 399L445 313L192 313L192 86L521 86L521 0Q456-50 456-89Q456-106 470-116.50Q484-127 498-130L512-132L489-207Q484-207 476.50-205.50Q469-204 449-198Q429-192 413.50-182.50Q398-173 385.50-154.50Q373-136 373-112Q373-53 444 0L93 0Z"  horiz-adv-x="564" vert-adv-y="1000"  />

      
      <glyph glyph-name="uni0119" unicode="&#x0119;" d="M42 253Q42 372 114 445Q186 518 296 518Q399 518 457 450.50Q515 383 515 281L511 240L143 240Q147 161 196.50 116.50Q246 72 317 72Q399 72 466 131L506 60Q496 50 457.50 22Q419-6 395.50-33Q372-60 372-89Q372-106 386-116.50Q400-127 414-130L427-132L405-207Q400-207 392-205.50Q384-204 364-198Q344-192 328.50-182.50Q313-173 300.50-154.50Q288-136 288-112Q288-59 349-8Q327-12 311-12Q193-12 117.50 63.50Q42 139 42 253M146 310L417 310Q415 373 380.50 408Q346 443 294 443Q237 443 196.50 407Q156 371 146 310Z"  horiz-adv-x="557" vert-adv-y="1000"  />

      
      <glyph glyph-name="uni011A" unicode="&#x011A;" d="M258 755L170 882L255 882L307 801L309 801L362 882L447 882L358 755L258 755M93 0L93 706L504 706L504 620L192 620L192 399L445 399L445 313L192 313L192 86L521 86L521 0L93 0Z"  horiz-adv-x="564" vert-adv-y="1000"  />

      
      <glyph glyph-name="uni011B" unicode="&#x011B;" d="M244 580L156 707L241 707L293 626L295 626L348 707L433 707L344 580L244 580M42 253Q42 372 114 445Q186 518 296 518Q399 518 457 450.50Q515 383 515 281Q515 268 511 240L143 240Q147 161 196.50 116.50Q246 72 317 72Q400 72 466 131L507 60Q471 27 417.50 7.50Q364-12 311-12Q193-12 117.50 63.50Q42 139 42 253M146 310L417 310Q415 373 380.50 408Q346 443 294 443Q237 443 196.50 407.50Q156 372 146 310Z"  horiz-adv-x="557" vert-adv-y="1000"  />

      
      <glyph glyph-name="uni011C" unicode="&#x011C;" d="M260 755L348 882L448 882L537 755L452 755L399 835L397 835L345 755L260 755M50 354Q50 508 153 613Q256 718 410 718Q565 718 667 632L617 559Q581 589 525.50 608.50Q470 628 417 628Q297 628 224.50 550Q152 472 152 356Q152 235 226 157Q300 79 411 79Q526 79 611 167L611 269L497 269L497 355L702 355L702 0L615 0L615 44L616 74L614 74Q577 35 519 11.50Q461-12 397-12Q252-12 151 91.50Q50 195 50 354Z"  horiz-adv-x="762" vert-adv-y="1000"  />

      
      <glyph glyph-name="uni011D" unicode="&#x011D;" d="M150 580L238 707L338 707L427 580L342 580L289 660L287 660L235 580L150 580M123-92Q191-126 262-126Q333-126 377.50-91.50Q422-57 422 15L422 56L425 88L423 88Q374 6 271 6Q168 6 106.50 79Q45 152 45 264Q45 376 104 447Q163 518 266 518Q317 518 360 499Q403 480 426 441L429 441Q426 447 426 456L426 506L519 506L519 21Q519-39 497.50-85Q476-131 439-157.50Q402-184 358-197Q314-210 264-210Q175-210 91-168L123-92M143 267Q143 187 182.50 138.50Q222 90 290 90Q349 90 386.50 131Q424 172 424 264Q424 434 281 434Q216 434 179.50 389.50Q143 345 143 267Z"  horiz-adv-x="594" vert-adv-y="1000"  />

      
      <glyph glyph-name="uni011E" unicode="&#x011E;" d="M50 354Q50 508 153 613Q256 718 410 718Q565 718 667 632L617 559Q581 589 525.50 608.50Q470 628 417 628Q297 628 224.50 550Q152 472 152 356Q152 235 226 157Q300 79 411 79Q526 79 611 167L611 269L497 269L497 355L702 355L702 0L615 0L615 44L616 74L614 74Q577 35 519 11.50Q461-12 397-12Q252-12 151 91.50Q50 195 50 354M400 751Q345 751 306.50 782Q268 813 268 868L268 882L340 882L340 869Q340 839 357.50 824Q375 809 400 809Q424 809 441.50 824.50Q459 840 459 870L459 882L531 882L531 868Q531 813 492.50 782Q454 751 400 751Z"  horiz-adv-x="762" vert-adv-y="1000"  />

      
      <glyph glyph-name="uni011F" unicode="&#x011F;" d="M123-92Q191-126 262-126Q333-126 377.50-91.50Q422-57 422 15L422 56L425 88L423 88Q374 6 271 6Q168 6 106.50 79Q45 152 45 264Q45 376 104 447Q163 518 266 518Q317 518 360 499Q403 480 426 441L429 441Q426 447 426 456L426 506L519 506L519 21Q519-39 497.50-85Q476-131 439-157.50Q402-184 358-197Q314-210 264-210Q175-210 91-168L123-92M143 267Q143 187 182.50 138.50Q222 90 290 90Q349 90 386.50 131Q424 172 424 264Q424 434 281 434Q216 434 179.50 389.50Q143 345 143 267M289 576Q234 576 195.50 607Q157 638 157 693L157 707L229 707L229 694Q229 664 246.50 649Q264 634 289 634Q313 634 330.50 649.50Q348 665 348 695L348 707L420 707L420 693Q420 638 381.50 607Q343 576 289 576Z"  horiz-adv-x="594" vert-adv-y="1000"  />

      
      <glyph glyph-name="uni0120" unicode="&#x0120;" d="M50 354Q50 508 153 613Q256 718 410 718Q565 718 667 632L617 559Q581 589 525.50 608.50Q470 628 417 628Q297 628 224.50 550Q152 472 152 356Q152 235 226 157Q300 79 411 79Q526 79 611 167L611 269L497 269L497 355L702 355L702 0L615 0L615 44L616 74L614 74Q577 35 519 11.50Q461-12 397-12Q252-12 151 91.50Q50 195 50 354M357 784L357 882L443 882L443 784L357 784Z"  horiz-adv-x="762" vert-adv-y="1000"  />

      
      <glyph glyph-name="uni0121" unicode="&#x0121;" d="M123-92Q191-126 262-126Q333-126 377.50-91.50Q422-57 422 15L422 56L425 88L423 88Q374 6 271 6Q168 6 106.50 79Q45 152 45 264Q45 376 104 447Q163 518 266 518Q317 518 360 499Q403 480 426 441L429 441Q426 447 426 456L426 506L519 506L519 21Q519-39 497.50-85Q476-131 439-157.50Q402-184 358-197Q314-210 264-210Q175-210 91-168L123-92M143 267Q143 187 182.50 138.50Q222 90 290 90Q349 90 386.50 131Q424 172 424 264Q424 434 281 434Q216 434 179.50 389.50Q143 345 143 267M246 609L246 707L332 707L332 609L246 609Z"  horiz-adv-x="594" vert-adv-y="1000"  />

      
      <glyph glyph-name="uni0122" unicode="&#x0122;" d="M351-59L436-59Q443-86 443-110Q443-151 418-204L344-204Q363-150 363-120Q363-90 351-59M50 354Q50 508 153 613Q256 718 410 718Q565 718 667 632L617 559Q581 589 525.50 608.50Q470 628 417 628Q297 628 224.50 550Q152 472 152 356Q152 235 226 157Q300 79 411 79Q526 79 611 167L611 269L497 269L497 355L702 355L702 0L615 0L615 44L616 74L614 74Q577 35 519 11.50Q461-12 397-12Q252-12 151 91.50Q50 195 50 354Z"  horiz-adv-x="762" vert-adv-y="1000"  />

      
      <glyph glyph-name="uni0123" unicode="&#x0123;" d="M333 563L249 563Q242 590 242 613Q242 653 267 706L340 706Q321 652 321 623Q321 594 333 563M123-92Q191-126 262-126Q333-126 377.50-91.50Q422-57 422 15L422 56L425 88L423 88Q374 6 271 6Q168 6 106.50 79Q45 152 45 264Q45 376 104 447Q163 518 266 518Q317 518 360 499Q403 480 426 441L429 441Q426 447 426 456L426 506L519 506L519 21Q519-39 497.50-85Q476-131 439-157.50Q402-184 358-197Q314-210 264-210Q175-210 91-168L123-92M143 267Q143 187 182.50 138.50Q222 90 290 90Q349 90 386.50 131Q424 172 424 264Q424 434 281 434Q216 434 179.50 389.50Q143 345 143 267Z"  horiz-adv-x="594" vert-adv-y="1000"  />

      
      <glyph glyph-name="uni0124" unicode="&#x0124;" d="M236 755L324 882L424 882L513 755L428 755L375 835L373 835L321 755L236 755M93 0L93 706L192 706L192 396L559 396L559 706L657 706L657 0L559 0L559 310L192 310L192 0L93 0Z"  horiz-adv-x="750" vert-adv-y="1000"  />

      
      <glyph glyph-name="uni0125" unicode="&#x0125;" d="M-13 755L75 882L175 882L264 755L179 755L126 835L124 835L72 755L-13 755M75 0L75 706L172 706L172 444L168 402L170 402Q191 446 241 482Q291 518 360 518Q533 518 533 324L533 0L436 0L436 302Q436 363 416.50 396Q397 429 341 429Q268 429 220 375.50Q172 322 172 240L172 0L75 0Z"  horiz-adv-x="603" vert-adv-y="1000"  />

      
      <glyph glyph-name="uni0126" unicode="&#x0126;" d="M100 0L100 514L34 514L34 581L100 581L100 706L200 706L200 581L559 581L559 706L659 706L659 581L724 581L724 514L659 514L659 0L559 0L559 310L200 310L200 0L100 0M200 396L559 396L559 514L200 514L200 396Z"  horiz-adv-x="759" vert-adv-y="1000"  />

      
      <glyph glyph-name="uni0127" unicode="&#x0127;" d="M75 0L75 563L3 563L3 626L75 626L75 706L172 706L172 626L305 626L305 563L172 563L172 447L170 405L172 405Q192 448 241.50 483Q291 518 360 518Q533 518 533 324L533 0L436 0L436 302Q436 363 416.50 396Q397 429 341 429Q266 429 219 374.50Q172 320 172 243L172 0L75 0Z"  horiz-adv-x="603" vert-adv-y="1000"  />

      
      <glyph glyph-name="uni0128" unicode="&#x0128;" d="M93 0L93 706L192 706L192 0L93 0M-24 756Q-24 883 78 883Q107 883 129 866Q151 849 169 832Q187 815 204 815Q224 815 233.50 834.50Q243 854 243 880L313 880Q313 753 211 753Q175 753 139.50 787Q104 821 85 821Q46 821 46 756L-24 756Z"  horiz-adv-x="286" vert-adv-y="1000"  />

      
      <glyph glyph-name="uni0129" unicode="&#x0129;" d="M75 0L75 506L172 506L172 0L75 0M-43 581Q-43 708 59 708Q95 708 130.50 674Q166 640 185 640Q205 640 214.50 659.50Q224 679 224 705L294 705Q294 578 192 578Q163 578 141 595Q119 612 101 629Q83 646 66 646Q27 646 27 581L-43 581Z"  horiz-adv-x="246" vert-adv-y="1000"  />

      
      <glyph glyph-name="uni012A" unicode="&#x012A;" d="M93 0L93 706L192 706L192 0L93 0M18 784L18 855L272 855L272 784L18 784Z"  horiz-adv-x="286" vert-adv-y="1000"  />

      
      <glyph glyph-name="uni012B" unicode="&#x012B;" d="M75 0L75 506L172 506L172 0L75 0M-2 609L-2 680L252 680L252 609L-2 609Z"  horiz-adv-x="246" vert-adv-y="1000"  />

      
      <glyph glyph-name="uni012C" unicode="&#x012C;" d="M93 0L93 706L192 706L192 0L93 0M145 751Q90 751 51.50 782Q13 813 13 868L13 882L85 882L85 869Q85 839 102.50 824Q120 809 145 809Q169 809 186.50 824.50Q204 840 204 870L204 882L276 882L276 868Q276 813 237.50 782Q199 751 145 751Z"  horiz-adv-x="286" vert-adv-y="1000"  />

      
      <glyph glyph-name="uni012D" unicode="&#x012D;" d="M75 0L75 506L172 506L172 0L75 0M125 576Q70 576 31.50 607Q-7 638-7 693L-7 707L65 707L65 694Q65 664 82.50 649Q100 634 125 634Q149 634 166.50 649.50Q184 665 184 695L184 707L256 707L256 693Q256 638 217.50 607Q179 576 125 576Z"  horiz-adv-x="246" vert-adv-y="1000"  />

      
      <glyph glyph-name="uni012E" unicode="&#x012E;" d="M93 0L93 706L192 706L192 0Q128-51 128-89Q128-106 142-116.50Q156-127 170-130L183-132L160-207Q155-207 147.50-205.50Q140-204 120-198Q100-192 84.50-182.50Q69-173 56.50-154.50Q44-136 44-112Q44-54 112 0L93 0Z"  horiz-adv-x="286" vert-adv-y="1000"  />

      
      <glyph glyph-name="uni012F" unicode="&#x012F;" d="M75 0L75 506L172 506L172 0Q108-51 108-89Q108-106 122-116.50Q136-127 150-130L163-132L141-207Q136-207 128-205.50Q120-204 100-198Q80-192 64.50-182.50Q49-173 36.50-154.50Q24-136 24-112Q24-55 93 0L75 0M73 608L73 706L173 706L173 608L73 608Z"  horiz-adv-x="247" vert-adv-y="1000"  />

      
      <glyph glyph-name="uni0130" unicode="&#x0130;" d="M93 0L93 706L192 706L192 0L93 0M102 784L102 882L188 882L188 784L102 784Z"  horiz-adv-x="286" vert-adv-y="1000"  />

      
      <glyph glyph-name="uni0131" unicode="&#x0131;" d="M75 0L75 506L172 506L172 0L75 0Z"  horiz-adv-x="246" vert-adv-y="1000"  />

      
      <glyph glyph-name="uni0132" unicode="&#x0132;" d="M284-4L284 86Q309 86 330.50 92Q352 98 374 113.50Q396 129 409 161Q422 193 422 240L422 706L522 706L522 239Q522-4 284-4M93 0L93 706L192 706L192 0L93 0Z"  horiz-adv-x="608" vert-adv-y="1000"  />

      
      <glyph glyph-name="uni0133" unicode="&#x0133;" d="M73 608L73 706L173 706L173 608L73 608M75 0L75 506L172 506L172 0L75 0M319 608L319 706L419 706L419 608L319 608M321-11L321 506L418 506L418-17Q418-65 403.50-101Q389-137 368.50-156.50Q348-176 319.50-188Q291-200 269-203Q247-206 224-206Q214-206 190-204L190-121Q200-123 212-123Q230-123 246-119Q262-115 280.50-104.50Q299-94 310-70Q321-46 321-11Z"  horiz-adv-x="493" vert-adv-y="1000"  />

      
      <glyph glyph-name="uni0134" unicode="&#x0134;" d="M167 755L255 882L355 882L444 755L359 755L306 835L304 835L252 755L167 755M28 203L28 238L126 238L126 208Q126 152 153.50 115.50Q181 79 237 79Q285 79 316.50 109.50Q348 140 348 204L348 620L170 620L170 706L446 706L446 203Q446 96 384.50 42Q323-12 237-12Q151-12 89.50 42.50Q28 97 28 203Z"  horiz-adv-x="533" vert-adv-y="1000"  />

      
      <glyph glyph-name="uni0135" unicode="&#x0135;" d="M-14 579L74 706L168 706L256 579L175 579L122 660L120 660L68 579L-14 579M75-11L75 506L172 506L172-17Q172-65 157.50-101Q143-137 122.50-156.50Q102-176 73.50-188Q45-200 23-203Q1-206-22-206Q-44-206-56-204L-56-121Q-42-123-34-123Q-16-123 0-119Q16-115 34.50-104.50Q53-94 64-70Q75-46 75-11Z"  horiz-adv-x="246" vert-adv-y="1000"  />

      
      <glyph glyph-name="uni0136" unicode="&#x0136;" d="M272-59L357-59Q364-86 364-110Q364-151 339-204L265-204Q284-150 284-120Q284-90 272-59M93 0L93 706L192 706L192 409L297 409L476 706L585 706L379 371L379 369L598 0L485 0L297 323L192 323L192 0L93 0Z"  horiz-adv-x="614" vert-adv-y="1000"  />

      
      <glyph glyph-name="uni0137" unicode="&#x0137;" d="M227-59L312-59Q319-86 319-110Q319-151 294-204L220-204Q239-150 239-120Q239-90 227-59M75 0L75 706L172 706L172 320L244 320L381 506L491 506L323 283L323 281L510 0L397 0L246 237L172 237L172 0L75 0Z"  horiz-adv-x="522" vert-adv-y="1000"  />

      
      <glyph glyph-name="uni0138" unicode="&#x0138;" d="M75 0L75 506L172 506L172 307L242 307L387 506L499 506L323 271L323 269L502 0L386 0L244 225L172 225L172 0L75 0Z"  horiz-adv-x="520" vert-adv-y="1000"  />

      
      <glyph glyph-name="uni0139" unicode="&#x0139;" d="M101 755L173 882L278 882L182 755L101 755M93 0L93 706L192 706L192 86L509 86L509 0L93 0Z"  horiz-adv-x="526" vert-adv-y="1000"  />

      
      <glyph glyph-name="uni013A" unicode="&#x013A;" d="M82 755L154 882L259 882L163 755L82 755M75 139L75 706L171 706L171 155Q171 114 185.50 98.50Q200 83 226 83Q237 83 243 84L243-2Q222-5 211-5Q75-5 75 139Z"  horiz-adv-x="267" vert-adv-y="1000"  />

      
      <glyph glyph-name="uni013B" unicode="&#x013B;" d="M262-59L347-59Q354-86 354-110Q354-151 329-204L255-204Q274-150 274-120Q274-90 262-59M93 0L93 706L192 706L192 86L509 86L509 0L93 0Z"  horiz-adv-x="526" vert-adv-y="1000"  />

      
      <glyph glyph-name="uni013C" unicode="&#x013C;" d="M115-59L200-59Q207-86 207-110Q207-151 182-204L108-204Q127-150 127-120Q127-90 115-59M75 139L75 706L171 706L171 155Q171 114 185.50 98.50Q200 83 226 83Q237 83 243 84L243-2Q222-5 211-5Q75-5 75 139Z"  horiz-adv-x="267" vert-adv-y="1000"  />

      
      <glyph glyph-name="uni013D" unicode="&#x013D;" d="M276 705L361 705Q368 678 368 654Q368 613 343 560L269 560Q288 614 288 644Q288 674 276 705M93 0L93 706L192 706L192 86L509 86L509 0L93 0Z"  horiz-adv-x="527" vert-adv-y="1000"  />

      
      <glyph glyph-name="uni013E" unicode="&#x013E;" d="M229 705L314 705Q321 678 321 654Q321 613 296 560L222 560Q241 614 241 644Q241 674 229 705M75 139L75 706L171 706L171 155Q171 114 185.50 98.50Q200 83 226 83Q237 83 243 84L243-2Q222-5 211-5Q75-5 75 139Z"  horiz-adv-x="275" vert-adv-y="1000"  />

      
      <glyph glyph-name="uni013F" unicode="&#x013F;" d="M93 0L93 706L192 706L192 86L509 86L509 0L93 0M308 326L308 431L409 431L409 326L308 326Z"  horiz-adv-x="527" vert-adv-y="1000"  />

      
      <glyph glyph-name="uni0140" unicode="&#x0140;" d="M75 139L75 706L171 706L171 155Q171 114 185.50 98.50Q200 83 226 83Q237 83 243 84L243-2Q222-5 211-5Q75-5 75 139M243 326L243 431L344 431L344 326L243 326Z"  horiz-adv-x="343" vert-adv-y="1000"  />

      
      <glyph glyph-name="uni0141" unicode="&#x0141;" d="M99 0L99 301L39 267L39 364L99 398L99 706L197 706L197 454L306 517L306 420L197 357L197 86L513 86L513 0L99 0Z"  horiz-adv-x="531" vert-adv-y="1000"  />

      
      <glyph glyph-name="uni0142" unicode="&#x0142;" d="M16 275L16 372L89 414L89 706L186 706L186 470L268 517L268 420L186 372L186 155Q186 83 240 83L258 84L258-2Q243-5 225-5Q89-5 89 139L89 317L16 275Z"  horiz-adv-x="286" vert-adv-y="1000"  />

      
      <glyph glyph-name="uni0143" unicode="&#x0143;" d="M332 755L404 882L509 882L413 755L332 755M93 0L93 706L191 706L506 248L564 145L566 145Q560 208 560 248L560 706L658 706L658 0L561 0L246 458L188 561L186 561Q192 498 192 458L192 0L93 0Z"  horiz-adv-x="752" vert-adv-y="1000"  />

      
      <glyph glyph-name="uni0144" unicode="&#x0144;" d="M268 580L340 707L445 707L349 580L268 580M75 0L75 506L169 506L169 437L166 399L168 399Q187 442 236.50 480Q286 518 360 518Q533 518 533 324L533 0L436 0L436 302Q436 363 416.50 396Q397 429 341 429Q268 429 220 375.50Q172 322 172 243L172 0L75 0Z"  horiz-adv-x="603" vert-adv-y="1000"  />

      
      <glyph glyph-name="uni0145" unicode="&#x0145;" d="M330-59L415-59Q422-86 422-110Q422-151 397-204L323-204Q342-150 342-120Q342-90 330-59M93 0L93 706L191 706L506 248L564 145L566 145Q560 208 560 248L560 706L658 706L658 0L561 0L246 458L188 561L186 561Q192 498 192 458L192 0L93 0Z"  horiz-adv-x="752" vert-adv-y="1000"  />

      
      <glyph glyph-name="uni0146" unicode="&#x0146;" d="M257-59L342-59Q349-86 349-110Q349-151 324-204L250-204Q269-150 269-120Q269-90 257-59M75 0L75 506L169 506L169 437L166 399L168 399Q187 442 236.50 480Q286 518 360 518Q533 518 533 324L533 0L436 0L436 302Q436 363 416.50 396Q397 429 341 429Q268 429 220 375.50Q172 322 172 243L172 0L75 0Z"  horiz-adv-x="603" vert-adv-y="1000"  />

      
      <glyph glyph-name="uni0147" unicode="&#x0147;" d="M325 755L237 882L322 882L374 801L376 801L429 882L514 882L425 755L325 755M93 0L93 706L191 706L506 248L564 145L566 145Q560 208 560 248L560 706L658 706L658 0L561 0L246 458L188 561L186 561Q192 498 192 458L192 0L93 0Z"  horiz-adv-x="752" vert-adv-y="1000"  />

      
      <glyph glyph-name="uni0148" unicode="&#x0148;" d="M261 580L173 707L258 707L310 626L312 626L365 707L450 707L361 580L261 580M75 0L75 506L169 506L169 437L166 399L168 399Q187 442 236.50 480Q286 518 360 518Q533 518 533 324L533 0L436 0L436 302Q436 363 416.50 396Q397 429 341 429Q268 429 220 375.50Q172 322 172 243L172 0L75 0Z"  horiz-adv-x="603" vert-adv-y="1000"  />

      
      <glyph glyph-name="uni0149" unicode="&#x0149;" d="M3 705L88 705Q95 678 95 654Q95 613 70 560L-4 560Q15 614 15 644Q15 674 3 705M75 0L75 506L169 506L169 437L166 399L168 399Q187 442 236.50 480Q286 518 360 518Q533 518 533 324L533 0L436 0L436 302Q436 363 416.50 396Q397 429 341 429Q268 429 220 375.50Q172 322 172 243L172 0L75 0Z"  horiz-adv-x="603" vert-adv-y="1000"  />

      
      <glyph glyph-name="uni014A" unicode="&#x014A;" d="M93 0L93 706L191 706L506 248L564 145L566 145Q560 208 560 248L560 706L658 706L658 27Q658-38 637.50-85.50Q617-133 582-158Q547-183 508.50-194Q470-205 426-205L426-114Q473-114 513-84Q553-54 557 7L246 458L188 561L186 561Q192 498 192 458L192 0L93 0Z"  horiz-adv-x="751" vert-adv-y="1000"  />

      
      <glyph glyph-name="uni014B" unicode="&#x014B;" d="M75 0L75 506L169 506L169 431L167 402L169 402Q189 445 237.50 481.50Q286 518 360 518Q533 518 533 324L533-20Q533-68 518.50-104Q504-140 483.50-159.50Q463-179 434.50-191Q406-203 384-206Q362-209 339-209L305-207L305-124Q314-125 327-125Q345-125 361-121Q377-117 395.50-107Q414-97 425-73Q436-49 436-14L436 302Q436 363 416.50 396Q397 429 341 429Q266 429 219 374.50Q172 320 172 243L172 0L75 0Z"  horiz-adv-x="603" vert-adv-y="1000"  />

      
      <glyph glyph-name="uni014C" unicode="&#x014C;" d="M285 784L285 855L539 855L539 784L285 784M49 358Q49 511 152 614.50Q255 718 412 718Q568 718 671 614.50Q774 511 774 358Q774 201 671 94.50Q568-12 412-12Q256-12 152.50 94.50Q49 201 49 358M151 358Q151 239 225 159Q299 79 412 79Q524 79 598 159Q672 239 672 358Q672 473 598 550.50Q524 628 412 628Q299 628 225 550.50Q151 473 151 358Z"  horiz-adv-x="823" vert-adv-y="1000"  />

      
      <glyph glyph-name="uni014D" unicode="&#x014D;" d="M188 609L188 680L442 680L442 609L188 609M42 254Q42 367 121 442.50Q200 518 314 518Q429 518 508 443Q587 368 587 254Q587 140 508 64Q429-12 315-12Q201-12 121.50 64Q42 140 42 254M141 254Q141 175 191.50 123.50Q242 72 315 72Q387 72 438 124Q489 176 489 254Q489 332 438 383Q387 434 315 434Q242 434 191.50 383Q141 332 141 254Z"  horiz-adv-x="629" vert-adv-y="1000"  />

      
      <glyph glyph-name="uni014E" unicode="&#x014E;" d="M49 358Q49 511 152 614.50Q255 718 412 718Q568 718 671 614.50Q774 511 774 358Q774 201 671 94.50Q568-12 412-12Q256-12 152.50 94.50Q49 201 49 358M151 358Q151 239 225 159Q299 79 412 79Q524 79 598 159Q672 239 672 358Q672 473 598 550.50Q524 628 412 628Q299 628 225 550.50Q151 473 151 358M411 751Q356 751 317.50 782Q279 813 279 868L279 882L351 882L351 869Q351 839 368.50 824Q386 809 411 809Q435 809 452.50 824.50Q470 840 470 870L470 882L542 882L542 868Q542 813 503.50 782Q465 751 411 751Z"  horiz-adv-x="823" vert-adv-y="1000"  />

      
      <glyph glyph-name="uni014F" unicode="&#x014F;" d="M42 254Q42 367 121 442.50Q200 518 314 518Q429 518 508 443Q587 368 587 254Q587 140 508 64Q429-12 315-12Q201-12 121.50 64Q42 140 42 254M141 254Q141 175 191.50 123.50Q242 72 315 72Q387 72 438 124Q489 176 489 254Q489 332 438 383Q387 434 315 434Q242 434 191.50 383Q141 332 141 254M314 576Q259 576 220.50 607Q182 638 182 693L182 707L254 707L254 694Q254 664 271.50 649Q289 634 314 634Q338 634 355.50 649.50Q373 665 373 695L373 707L445 707L445 693Q445 638 406.50 607Q368 576 314 576Z"  horiz-adv-x="629" vert-adv-y="1000"  />

      
      <glyph glyph-name="uni0150" unicode="&#x0150;" d="M433 755L506 882L607 882L511 755L433 755M279 755L347 882L435 882L364 755L279 755M49 358Q49 511 152 614.50Q255 718 412 718Q568 718 671 614.50Q774 511 774 358Q774 201 671 94.50Q568-12 412-12Q256-12 152.50 94.50Q49 201 49 358M151 358Q151 239 225 159Q299 79 412 79Q524 79 598 159Q672 239 672 358Q672 473 598 550.50Q524 628 412 628Q299 628 225 550.50Q151 473 151 358Z"  horiz-adv-x="823" vert-adv-y="1000"  />

      
      <glyph glyph-name="uni0151" unicode="&#x0151;" d="M336 580L409 707L510 707L414 580L336 580M182 580L250 707L338 707L267 580L182 580M42 254Q42 367 121 442.50Q200 518 314 518Q429 518 508 443Q587 368 587 254Q587 140 508 64Q429-12 315-12Q201-12 121.50 64Q42 140 42 254M141 254Q141 175 191.50 123.50Q242 72 315 72Q387 72 438 124Q489 176 489 254Q489 332 438 383Q387 434 315 434Q242 434 191.50 383Q141 332 141 254Z"  horiz-adv-x="629" vert-adv-y="1000"  />

      
      <glyph glyph-name="uni0152" unicode="&#x0152;" d="M50 354Q50 507 154.50 611Q259 715 415 715Q440 715 481 710.50Q522 706 538 706L896 706L896 620L584 620L584 399L838 399L838 313L584 313L584 86L913 86L913 0L538 0Q523 0 482-4.50Q441-9 415-9Q259-9 154.50 95.50Q50 200 50 354M152 354Q152 236 225.50 156.50Q299 77 415 77Q433 77 450.50 79Q468 81 477 83L486 85L486 621Q455 629 415 629Q300 629 226 550Q152 471 152 354Z"  horiz-adv-x="956" vert-adv-y="1000"  />

      
      <glyph glyph-name="uni0153" unicode="&#x0153;" d="M120.50 61.50Q120.50 61.50 81.25 98.25Q42 135 42 252Q42 369 120.50 443.50Q199 518 312 518Q459 518 531 398L533 398Q596 518 741 518Q845 518 902.50 450.50Q960 383 960 281L957 240L588 240Q594 161 643.50 116.50Q693 72 762 72Q845 72 912 131L952 60Q916 27 863 7.50Q810-12 756-12Q603-12 535 111L533 111Q462-12 312-12Q199-12 120.50 61.50M591 310L861 310Q859 372 825 406.50Q791 441 740 441Q683 441 642.50 406Q602 371 591 310M141 252Q141 172 191.50 122Q242 72 314 72Q387 72 437.50 122.50Q488 173 488 255Q488 334 437 384Q386 434 314 434Q242 434 191.50 383.50Q141 333 141 252Z"  horiz-adv-x="1003" vert-adv-y="1000"  />

      
      </font>
</defs>
</svg>
